<?xml version="1.0" encoding="UTF-8"?>
<svg id="Calque_1" data-name="Calque 1" xmlns="http://www.w3.org/2000/svg" viewBox="0 0 820 1024">
  <defs>
    <style>
      .cls-1 {
        fill: #3862c5;
      }

      .cls-2 {
        fill: #e6e8ec;
      }

      .cls-3 {
        fill: #c1c5d4;
      }

      .cls-4 {
        fill: #3e62be;
      }

      .cls-5 {
        fill: #25375e;
      }

      .cls-6 {
        fill: #161838;
      }

      .cls-7 {
        fill: #12132c;
      }

      .cls-8 {
        fill: #3564d0;
      }

      .cls-9 {
        fill: #0d184f;
      }

      .cls-10 {
        fill: #3663cb;
      }

      .cls-11 {
        fill: #3763ca;
      }

      .cls-12 {
        fill: #3d5fba;
      }

      .cls-13 {
        fill: #131942;
      }

      .cls-14 {
        fill: #f7f7f8;
      }

      .cls-15 {
        fill: #25375f;
      }

      .cls-16 {
        fill: #111946;
      }

      .cls-17 {
        fill: #3a62c4;
      }

      .cls-18 {
        fill: #3862c6;
      }

      .cls-19 {
        fill: #25385e;
      }

      .cls-20 {
        fill: #0c1851;
      }

      .cls-22 {
        fill: #14193d;
      }

      .cls-23 {
        fill: #111947;
      }

      .cls-24 {
        fill: #101846;
      }

      .cls-25 {
        fill: #f9fafa;
      }

      .cls-26 {
        fill: #0b0d25;
      }

      .cls-27 {
        fill: #0d1a53;
      }

      .cls-28 {
        fill: #f5f6f7;
      }
    </style>
  </defs>
  <path class="cls-16" d="M566,420c-.13.58.09,1.36,0,2-4.32,3.33-7.05,4.78-12.62,5.88l-67.38,6.13c-1.42,1.49,6.4,9.57,7.82,11.68,5.18,7.73,10.26,17.47,13.19,26.31.74,2.23-.06,6.06,3,8-.01.33,0,.67,0,1,0,.18-1.29,1.24-1.02,3.36.43,3.42,3.72,8.41,3.03,12.64l3.99-1c-1.29,4.48,1.9,7.3,2.79,10.71.58,2.23.03,4.69.7,7.3.98,3.78,4.36,8.64,6.52,11.98,0,.33,0,.67,0,1-.03,3.83-.12,4.81.39,8.3.91,6.23,2.07,5.93,3.53,9.49,1.63,3.96.05,10.01,4.08,13.22.05.33-.04.67,0,1,.57,4.28,1.79,9.64,2.06,13.47.6,8.58-2.26,15.6,1.24,24.73.79,2.07,3.02,3.83,3.47,5.53,1.22,4.69-.82,13.49,3.24,17.26.09.65-.09,1.35,0,2-1.64,4.1-4.72,6.01-2.22,10.73l4.22,7.27c.09.64-.09,1.36,0,2-6.46-1.27-5.57,6.22,0,3-2.39,5.66,2.07,11.91,2.07,16.53,0,3.93-3.8,4.49-4.04,2.8.5-5.93-7.68-4.28-9.73-10.35l-11.67-.04c-.73.2-2.05,4.96-2.63,6.06-1.58.32-6.37-.88-6.76,1.45,2.45,4.08-.76,6.9-1.19,10.1-2.09,15.58.26,29.28-7.09,43.71-1.53,3.01-4.57,6.39-5.68,10.54-1.25,4.67,1.4,2.81,1.72,3.2,3.44,4.24.46,4.07,6.49,7.97,2.89,1.87,3.38,4.26,8.52,3.03,1.5,5.07-2.11,6.59-2.01,11-.39,1.1-.87,2.87-1,4l-4.04,1.67,1.05,16.34c3.7,1.08,1.26-4.3,2-5.01,5.81-1.05,1.52,3.86,1.99,7.43.31,2.38,4.07,5.56,4.07,8.04,0,.55-2.87.52-2.06,2.54-.25-.08-.65.03-1,0-.71-.06-2.12-.4-2.02.6.68,6.26.59,12.62,1.03,18.89.25,3.69,2.1,9.58,1.93,12.94-.45,9.23-2.94,7.94.97,18.35.75,1.99,5.95,39.8,5.82,41.94-.1,1.68-1.88,2.44-1.61,4.54.14,1.1,2.53,9.67,3.1,12.02,1.7,7.03,4.87,5.72,6.87,8.12.57.69,2.63,6.31,3.92,8.6,8.07,14.37,23.67,42.42-.95,48.55-17.72,4.41-66.1-2.42-79.54-15.55-9.65-9.43-8.07-41.5-8.51-54.99,1.66-1.04,1-3.79,1.02-5.49.09-7.31.23-14.76-.02-22.06-.06-1.93,1.02-4.01-2-3.45-.52-19.97-.45-40.02-1-60,1.66-1.04,1-3.79,1.02-5.49.11-8.48.12-17.05-.02-25.51-.68-40.47-.11-96.05-8-134-.02-.12-.74-.87-1-2,2.59-1.52.3-3.91,0-5-.06-.24-.72-.88-1-2,2-3.94,4.5-14.65-3-13-.42-.82-2.81-3.65-3.62-3.82-14.4,4.53-27.56,15.1-33.57,29.13-5.34,12.47-6.62,32.92-7.81,46.69-1.97,22.77-1.77,48.33-1,71.55.06,1.92-1.02,4.01,2,3.45.03,2.99-.02,6.01,0,9-3.03-.56-1.92,1.53-2,3.45-.45,11.3.81,22.66,1,33.55.5,28.14-.31,56.36-.02,84.51.02,1.69-.64,4.45,1.02,5.49-.2,12.26,1.63,39.87-8.5,48.04-.91.73-2.04.65-2.5.96l-.78-.61.78-3.39c3.17-3.57.92-4.49,1-5,1.07-6.6,2.25-13.53,4-20,.44-46.91,2.86-95.4,1-142.55-.08-1.93,1.03-4.01-2-3.45-.16-25.54-.72-51.22-.01-76.51.91-32.25.06-64.33,30.08-83.92,25.75-16.8,29,2.08,31.92,23.95,6.88,51.55,6.54,109.58,8.02,161.48.03,1-.03,2,0,3,1.09,38.19.74,76.37,2.99,114.51.61,10.36-1.58,24.04,8.08,30.92s45.13,13.75,57.45,13.64c5.7-.05,20.95-2.22,21.44-9.62.63-9.56-13.32-34.34-17-44.91-13.2-37.86-14.86-92.45-17.95-133.05-.32-4.2-.4-24.64-1.52-26.48-1.74-2.87-7.33-3.6-8.43-10.57-1.68-10.68,4.27-12.13,5.71-19.17.59-2.89.31-6.74.21-9.76-1.25-39.2-5.77-84.77-9.99-124-2.33-21.65-5.65-43.43-10.99-64.51-.02-.67.02-1.33,0-2-.3-8.17-8.57-23.85-8.08-31.51.32-5.04,4.08-4.08,7.08-1.49.09.31-.09.69,0,1,3.9,12.86,10.13,25.92,14.26,39.24,13.46,43.39,20.17,88.47,23.74,133.76,8.17-2.87,14.94-4.51,22.98,0-6.68-63.85-15.66-131.24-44.99-189-6.02-11.86-11.26-22.66-23-30-.89-.56-1.61-1.92-3-2l-1-2c.12-.13,1.92-2.84,2-3,5,.78,9.96.78,15,1,3.63.16,12.95-1.57,13.03,1.96l1.46.05c.93-3.63,3.99-1.4,6.97-2.05,1.72-.38,2.75-1.7,4.99-2.01,8.37-1.17,20.2,2.61,27.02-2.02l4.03,2.09c.97-3.78,4.77-1.33,7.83-2.03.46-.11,6.9-3.85,7.36-3.96,2.12-.51,5.04.27,7.32-.02ZM500,567c-.14-1.32-.78-10.07-1.5-10.01-2.35,3.51-4.85.95-3.3,7.36.36,1.49,1.7,2.34,1.8,2.65.17.58.05,2.2,0,3-.96,15.59,2.47,29.86,3.98,45.52.78,8.04-1.22,16.7,2.02,24.48.26,3.22,1.66,8.02,1.99,11.5.61,6.32.76,13.13,1.01,19.49,1.89.56,1.65-.75,1.99-.99,3.09-2.16,3.66-6.88,3.98-10.52,1.67-18.63-3.89-56.45-7.25-75.71-.6-3.42-3.16-7.68-2.81-11.71-.63-.23-1.28-.06-1.92-.06-.21-1.59.17-3.39,0-5Z"/>
  <path class="cls-13" d="M544,225v5.01s2,0,2,0c.32,1,.68,1.99,1,3v3c-3.71.11-2.69-6.6-6.99-6-1.22,6.5-6.1,8.95-12.01,10-1.67.3-2.36-.85-1.99,1.99h1.99c.1,7.97-.87,3.58-4.93,6.57-1.64,1.2-2.2,4.18-4.07,5.43-.68-.66-3.06-3.62-3.28-3.73-1.2-.58-3.2.03-3.62-.36-.29-.26-2.18-7.04-2.21-7.45-.06-.97,3.86-3.2,2.11-6.47.33-.04.68.06,1,0,.1-.02.48,1.07,1.96.62,5.74-1.74,2.9-6.54,4.94-9.23,1.28-1.68,4.86-1.33,6.1-3.4,1.75.71,3.73.87,5.68,1.82.8.39,8.93,6.74,7.31,2.69-.2-.51-1.36-1.18-1.7-2.3-5.22-16.82-12.79-29.29-20.14-44.86-6.25-13.24-11.3-33.61-23.81-42.19-29.1-19.97-100.1-1.27-131.85,9.82-33.41,11.66-104.62,45.34-122.48,76.02-6.39-5.82-2.33-11.73-1-19,.85-1.84,1.43-3.79,2-5,.13-.27-.13-.73,0-1,3.71.42,4.93-4.08,9-3-1.69,3.37-5.33,7.47-4.5,11,13.51-14.69,31.64-26.17,48.99-36.01s34.59-17.8,52.51-24c.58-2.6-1-2.01-2.77-2.67-11.73-4.32-48.67-8.96-60.06-5.65-1.97.57-6.67,3.38-8.03,4.97-4.52,5.3-12.16,24.51-15.95,32.1-.63,1.26-2.08,2.02-2.2,2.26-5.26-.22-2.09-6.54-1-10,.1-.31-.1-.71,0-1,7.2-2.21,4-3.18,5-8,1.16-5.6,6.53-18.36,10.77-22.02,3.15-2.71,8.87-3.53,10.96-5.27.91-.76,9.7-17.77,11.28-20.71h4.01s0,4,0,4c-.2.31-.12,2.41-.78,3.67-.81,1.53-6.74,11.85-6.21,12.32,22.23-1.22,43.61,3.92,64.99,9l-2.19-45.3c-.86-2.85-12.15-5.64-15.53-7.48-1.91-1.04-2.67-2.82-3.28-3.21l1.01-5h-4.01c-.51-2.19.54-1.94,2-3,16.88,12.92,27.33,13.08,44.7,1.23.9-.61,1.85.15,1.3-2.23-18.33,4.93-34.04-6.06-51.99-5.01-.21-1.22.4-4.26,1.67-5.04,5.83-1.4,9.55,1.58,13.78,2.09,2.37.29,5.1-.27,7.55-.05.33.03.67-.03,1,0v2c1.98.09,4.01-.1,6,0,5.96.29,6.42,2.46,14.25.75,28.49-6.23,51.88-24.8,79.79,2.71,14.04,13.83,22.68,42.92,34.54,54.46,5.68,5.53,18.6,9,22.23,18.77,11.71,26.11,25.6,51.4,35.2,78.3ZM476,124.99l-16.19-29.3c-9.15-17.4-29.22-35.97-50.33-27.72-16.3,6.37-30.47,23.08-48.47,25.03l2,47.99c36.35-11.75,74.49-20.74,112.99-16ZM381.5,75v1c.65-.33.65-.67,0-1Z"/>
  <path class="cls-23" d="M167,352c-2.2,2.71-.7,3.82-5,6-5.29,12.52-14.98,22.2-19.74,36.76-27.18,83.02,106.99,66.93,152.29,67.29l50.46-4.04c1.71,1.7-5.1,38.02-5.86,43.64-15.36,114.39-8.14,229.39-18.15,343.85-2.53,28.96-7.18,40.42-16.99,66.51-2.13.9-7.18,11.18-8,14-.09.31.09.69,0,1-3.74,3.04-9.02,17.24-5.73,20.75,4.25,4.54,28.66,4.72,35.22,4.24,13.1-.97,26.11-6.59,38.52-7.98,2.79-.31,7.04.61,9.34.05,1.28-.31.9-2.73,1.91-3.83.41-.45,1.63-.09,1.74-.22l-.78,3.39.78.61c-17.39,11.37-62.61,19.16-82.23,12.73-20.09-6.59-11.1-21.95-4.3-35.75,7.28-14.76,15.51-26,19.23-42.77,7.13-32.18,6.84-73.79,8.3-107.2.99-3.8,1.78-9.6,1.99-13.51,1.4-25.79,3.64-55.55,3.01-81.04-.05-1.93,1.01-4.01-2-3.45,1.41-39.8,1.3-80.77,5.01-120.49,2.74-29.27,8.12-58.4,11.99-87.51-.09-1.37-1.48-.92-2.45-1.04-2.95-.37-10.1-.33-13.09.01-35.66,4.13-72.1,5.21-108.47,4.03-76.55-2.48-105.84-41.02-60-108,2.83.46,5.54-.75,8-2,1.05-2.49-.13-6.59,5-6Z"/>
  <path class="cls-22" d="M239,225c-.36.61-2.22,5.77-1.99,6,2.67-.76,5.28-1.38,7.99-2-.72,3.94,1,4.44,4,6-7.4,2.28-20.15,6.82-23.22,14.29-2.57,6.27,2.64,3.77,4.22,4.71.09.05-.25,1.35.2,1.74,1.56,1.37,6.74-1.65,5.8,2.25l-6.95.08c-.36.84.21,2.43-.04,2.93-.14.28-.76.58-1,1-1.78,3.08-7.66,9.5,0,7,1.87-.61,5.26-2.1,7-3,11.85,1.39,11.17-.83,17-8.55,1.57-2.07,5.12-2.16,4.01-7.46,4.55-1.02,4.24,5.23,8.54,5,2.31.16,2.37-3.33,4.12-3.9,1.16-.38,6.02.84,8.33.91.31,2.57-1.88,1.14-2,4-.02.6-.13,1.55,0,2h-1l-6-2v2s0,1,0,1c-4.99-1.27-11.32,1.5-15.73,3.72-20.29,10.21-51.72,30.59-60.27,52.28l-2.01.51v2.49s2.01,0,2.01,0c-.06.66.04,1.34,0,2,0,.13-.99.8-.96,2.31.04,2.15,1.6,5.03,1.01,7.65l4.95,1.05c.11.18,2.24,2.15,3,3,.13.14-.44,1.21.63,2.07,2.42,1.93,8.73,3.03,11.88,3,5.91-.05,3.32-1.16,9.49.93l-1,3c-5.14.51-7.07-1.25-11.54,2.96-7.68,7.25-27.92,35.37-33.46,45.04l-1-1c.26-1.16-.26-2.94.06-4.4.53-2.42,2.33-4.03.94-6.6,8.17-12.32,17.28-24.31,26.98-35.5-6.33-3.96-13.1-7.65-15-15.5-.91-.85-4.11,3-4.98,4-1.99.23-4.43-.42-6.3.02-.18.04-1.91,1.45-2.7,1.98,1.31-5.67,9.53-11.12,11.47-16.03,1-2.53.27-5.21,1-8,1.99-7.68,11.6-17.2,17.52-22.48,2.63-2.34,17.03-12.48,17.52-13.48.96-1.97.04-11.96-.55-14.46-.89-3.79-3.88-4.09-2.74-9.81,5.16-9.72,8.18-20.39,12.61-30.42,2.02-4.58,5.22-9.07,7.18-13.32-1.33,7.27-5.39,13.18,1,19ZM257.99,256.01h-1.99v1.99h1.99v-1.99Z"/>
  <path class="cls-6" d="M546,642c1.61,11.16,5.22,22.03,6.9,32.6,4.69,29.63-.85,70.64-12.41,98.38-4.74,11.37-8.08,18.44-21.82,14.81-1.32-.35-2.24-1.65-2.66-1.79-.81-2.02,2.06-1.99,2.06-2.54,0-2.48-3.76-5.65-4.07-8.04-.46-3.57,3.82-8.48-1.99-7.43-.74.71,1.7,6.09-2,5.01l-1.05-16.34,4.04-1.67c-.21,1.92.14,4.05.01,6l1.99-1c.13.49,2.48,2.33,2.01,4,3.71.08,4.05-5.13,4.55-7.95.57-3.2.12-1.9-2.57-2.05,1.15-3.59,1.33-7.34,2-11l3.99,1c-.15-1.72.86-3.42,1.01-5h1c-.75,5.32-1.03,9.41-2.72,14.78-1.97,6.27-8.42,16.31-7.09,22.49,1.13,5.25,8.37,7.87,12.26,3.68,1.41-1.53,7.74-15.69,8.6-18.4.99-3.12,1.12-6.39,1.95-9.55,2.9.6,1.82-1.43,2.28-3.17,2.55-9.52,3.12-13.55,3.72-22.83.04-.66-.05-1.34,0-2h2s-1-6-1-6c.77-13.01,2.31-40.92-3.23-52.27s-14.54-7.6-23.77-5.73c-9.33,17.64-5.52,22.32-8.01,40.49-1.25,9.09-4.69,16.38-8.99,23.51-.9,1.5-2.52,2.42-2,5-.32-.39-2.96,1.47-1.72-3.2,1.11-4.16,4.15-7.53,5.68-10.54,7.34-14.43,5-28.12,7.09-43.71.43-3.2,3.64-6.01,1.19-10.1.38-2.33,5.18-1.14,6.76-1.45.58-1.1,1.9-5.85,2.63-6.06l11.67.04c2.05,6.07,10.22,4.42,9.73,10.35.25,1.7,4.04,1.13,4.04-2.8,0-4.62-4.46-10.87-2.07-16.53-5.56,3.21-6.45-4.28,0-3Z"/>
  <path class="cls-22" d="M550,247c.02,5.55-.3,11.46-4.01,16.49-4.16,5.66-7.81,3.75-1.5,11.52,7.55,9.3,14.5,16.33,20.68,27.32,9.57,17.03,7.84,45.51,8.84,65.16.91,17.98,8.23,41.97-8.01,54.51.09-.64-.13-1.42,0-2,.83-3.67,4.14-6.32,6.11-9.47.06-2.05-1.05-4.07-1.1-6.04-.69-27.51-1.69-53.74-5.06-80.99-.23-1.88,1.26-4.06-1.95-3.5-.11-.62.12-1.39,0-2,4.37-3.39-3.09-21.41-7-18-.03.99.02,2,0,3,0,.33-.02.67,0,1l-5.02-.58c.36-5.13-.06-9.67-1.07-14.66-.16-.77-1.67-.67-1.72-1.24s.82-1.7.6-2.81c-.52-2.71-3.19-3.59-4.79-5.46-.68-.79-.65-2.8-1.14-3.11-1.04-.67-4.26.12-5.87-.14-.52-1.07-.38-2.77-1.16-3.86l-3.84-.14c-.06-.3.01-.67,0-1-.02-.39,1.91-1.29,0-4,4.31-2.11,7.75-1.25,10.95-5.76l6.05-14.24Z"/>
  <path class="cls-6" d="M351,68c-2.45-.21-5.18.34-7.55.05-4.23-.52-7.95-3.49-13.78-2.09-1.27.78-1.88,3.82-1.67,5.04.25,1.46,4.57,4.91,6,6-1.46,1.06-2.51.81-2,3h4.01s-1.01,5-1.01,5c-3.97-2.52-8.29-4.44-11.71-7.89-3.17-.85-8.92,9.44-10.5,12.17-5.17,8.89-9.64,18.59-14.79,26.71v-4.01s-4,0-4,0c5.5-10.24,10.47-22.02,16.61-31.89,10.81-17.37,20.91-20.14,40.39-12.11Z"/>
  <path class="cls-6" d="M515,786c2.5,34.12,2.89,70.18,12.28,103.22,2.2,7.75,5.94,14.91,7.72,22.78-1.29-2.29-3.35-7.91-3.92-8.6-1.99-2.4-5.17-1.1-6.87-8.12-.57-2.35-2.96-10.92-3.1-12.02-.27-2.1,1.52-2.86,1.61-4.54.12-2.13-5.08-39.95-5.82-41.94-3.91-10.42-1.43-9.12-.97-18.35.17-3.36-1.68-9.25-1.93-12.94-.43-6.27-.35-12.62-1.03-18.89-.11-1,1.3-.66,2.02-.6Z"/>
  <path class="cls-7" d="M445,768h-2c-1.26-41.93-3.23-81.7-5.99-123.51-.23-3.48.13-7.01-.01-10.49,7.89,37.95,7.32,93.53,8,134Z"/>
  <path class="cls-7" d="M338,465c-34.75,3.31-69.59,5.36-104.54,5.04l-19.46-2.04c36.37,1.18,72.81.1,108.47-4.03,2.99-.35,10.13-.38,13.09-.01.96.12,2.36-.33,2.45,1.04Z"/>
  <path class="cls-13" d="M547,239c.06,1.56,1.09,3.64,0,5.99h2.99c.05.66,0,1.34,0,2.01l-6.05,14.24c-3.2,4.51-6.65,3.65-10.95,5.76-.17-.24-.74-.8-1-1l6.01-3.53c.2-1.07-1.41-2.16-1.77-3.22-1.55-4.6,1.25-2.59,2.48-3.46.34-.24,4.59-6.42,4.76-6.81,1.32-2.95-1.05-9.91,3.51-9.99Z"/>
  <path class="cls-6" d="M257,179c-2.78,5.62-5.07,12.15-8,18-4.07-1.08-5.29,3.42-9,3,4.98-10.47,10.13-20.99,16-31-1.09,3.46-4.26,9.78,1,10Z"/>
  <path class="cls-7" d="M321,673c3.01-.56,1.95,1.52,2,3.45.63,25.49-1.61,55.25-3.01,81.04-.21,3.91-1,9.71-1.99,13.51,1.42-32.67,1.84-65.4,3-98Z"/>
  <path class="cls-6" d="M544,620c-4.05-3.78-2.02-12.57-3.24-17.26-.44-1.7-2.67-3.47-3.47-5.53-3.5-9.14-.64-16.16-1.24-24.73-.27-3.83-1.49-9.19-2.06-13.47,5.69,19.89,7.22,40.59,10,61Z"/>
  <path class="cls-6" d="M526,526c-2.16-3.35-5.54-8.2-6.52-11.98-.67-2.61-.12-5.07-.7-7.3-.89-3.42-4.07-6.23-2.79-10.71l-3.99,1c.69-4.23-2.6-9.23-3.03-12.64-.27-2.11,1.02-3.18,1.02-3.36,1.84.62,1.94,2.44,2.58,3.92,3.38,7.87,13.41,33.83,13.42,41.08Z"/>
  <path class="cls-22" d="M171,337c1.23,3.23-3.02,5.24-3.02,5.57,0,2.25,1.64,5.24.02,8.43-.29.37-.71.64-1,1-5.13-.59-3.95,3.51-5,6-2.46,1.25-5.17,2.46-8,2,5.35-7.82,10.34-16.11,17-23Z"/>
  <path class="cls-23" d="M183,332c-4.95,5.63-10.17,12.96-15,19,1.63-3.18-.02-6.18-.02-8.43,0-.34,4.25-2.34,3.02-5.57,1.15-1.19,1.22-1.81,3-3,.79-.53,2.52-1.94,2.7-1.98,1.87-.44,4.31.21,6.3-.02Z"/>
  <path class="cls-26" d="M388,895c-1.66-1.04-1-3.79-1.02-5.49-.3-28.16.52-56.38.02-84.51h1c.12,29.95.5,60.06,0,90Z"/>
  <path class="cls-26" d="M388,759c-3.02.56-1.94-1.53-2-3.45-.77-23.22-.97-48.78,1-71.55l-.04,61.54c1.12,4.56,1,8.83,1.04,13.46Z"/>
  <path class="cls-6" d="M388,768c.1,12.32-.05,24.68,0,37h-1c-.19-10.89-1.45-22.25-1-33.55.08-1.93-1.03-4.01,2-3.45Z"/>
  <path class="cls-6" d="M534,558c-4.03-3.21-2.45-9.26-4.08-13.22-1.46-3.55-2.62-3.25-3.53-9.49-.51-3.48-.42-4.46-.39-8.3,4.27,9.89,6.45,20.4,8,31Z"/>
  <path class="cls-6" d="M546,640l-4.22-7.27c-2.5-4.72.58-6.63,2.22-10.73.81,5.95,1.17,12.09,2,18Z"/>
  <path class="cls-7" d="M432,612c7.5-1.65,5,9.06,3,13-.96-3.81-1.14-9.36-3-13Z"/>
  <path class="cls-26" d="M445,768c.14,8.47.12,17.03.02,25.51-.02,1.69.64,4.45-1.02,5.49-.29-10.34-.69-20.75-1-31h2Z"/>
  <path class="cls-26" d="M445,859c3.02-.56,1.94,1.53,2,3.45.24,7.3.11,14.75.02,22.06-.02,1.69.64,4.45-1.02,5.49-.33-10.28-.74-20.86-1-31Z"/>
  <path class="cls-22" d="M550,245h-2.99c1.09-2.36.05-4.44,0-6-.04-1,0-2,0-3v-3c1.61,5.01,2.6,6.24,3,12Z"/>
  <path class="cls-6" d="M261,160c-1,4.82,2.2,5.79-5,8,.93-2.56,2.79-6.51,5-8Z"/>
  <path class="cls-6" d="M510,480c-3.06-1.94-2.26-5.77-3-8,2.28,2.22,3.11,4.85,3,8Z"/>
  <path class="cls-6" d="M358,70c-1.99-.1-4.02.09-6.01,0v-2c1.78.15,4.62.8,6.01,2Z"/>
  <path class="cls-22" d="M546,230h-2s0-5,0-5c.56,1.58,1.36,3.02,2,5Z"/>
  <path class="cls-6" d="M238,206c.34-1.86-.04-3.82,2-5-.57,1.21-1.15,3.16-2,5Z"/>
  <path class="cls-7" d="M436,632c-.32-1.38.22-3.47,0-5,.3,1.09,2.59,3.48,0,5Z"/>
  <path class="cls-8" d="M558,396c6.36-.23,6.42-7.22,6.01-11.99,1.92-.31,2.68.79,2.99,2.5.38,2.06.74,11.25.56,13.54s-4.66,15.67-6.22,16c-1.36.29-3.14-.37-4.65-.03-.76.17-.61,1.79-1.37,1.97-8.47,1.99-17.02.82-25.88,1.94-1.91.24-.95,1.92-2.87,2.16-3.78.48-9.41-.87-12.88-.06-.81.19-.27,1.81-2.12,2.06-8.75,1.14-20.32-1.25-29.13-.16-2.13.26-.96,2.89-3.93,2.1-.39-.1-.38-1.82-1.17-2-1.74-.39-3.92.18-5.77-.06-1.3.34-.21,2.36-.56,3.05-.08.16-1.88,2.87-2,3-.29.32-3.1-.78-1.99,1.99h1.99c-3.44,4.68-1.76,5.44,4,4.01,2.63-.29,3.09,2.81,3,5,0,.25-1.74,1.64-.92,2.89,2.5,1.66,4.27,1.68,6.92,2.11.81.13,1.91-.35,2.78.19.42.36.34,1.27.22,1.81-.01.05-.8-.19-.99.51-.67,2.43,1.53,1.13,1.99,1.49,1.13.89,3.04,4.41,4,6l-.56,7.01c.94,1.31,2.3.83,3.56.99.96.12,2.02-.08,3,0,.08,1.41-.27,3.08.06,4.42.97,3.88,2.44,11.86,5.98,12.22,1.54,9.22,4.48,17.52,7.53,26.31,1.16,3.35-1.31,4.83,3.48,5.69-.32,6.37,5.31,14.58,5.77,20.15.36,4.43-3.17,6.04,3.26,7.82.83,2.91-1.24,8.59-.93,9.84s2.59,1.12,2.89,2.25c1.4,5.2-2.94,8.96,1.11,15.71.66,1.1,2.25,1.17,2.82,2.39,1.34,2.84,5.56,34.36,6.05,39.71.14,1.55-1.12,3.29-.99,4.96.15,1.83,2.59,4.47,2.98,8.04.57,5.2-.41,11.2,0,16.51l-3.1-.61-1.04-3.25-3.85-.16-.1,3.96c-1.94.27-3.46-.8-2.91,2.05,3.82.51,11.68.49,11,6-4.14-.02-6.56,1.01-9.47-2.08l-1.88.09c-1.06,2.36-1.94,2.29-4.6,1.97l-1.11-23.42,2.95-.61c-1.08-5.5,6.09-14.46-1.88-15.93v6s-4,0-4,0c-.58-2.8.9-5.63.74-8.24-.1-1.51-1.57-11.17-1.9-12.14-.57-1.69-4.52-1.11-2.83-7.96.19-.78,2.02-.7,2.04-1.18.08-2.02-7.51-15.73-4.05-21.48.05-.09,1.82.13,2.03-.49l-.03-2.5h-1.99s0,2.99,0,2.99c-1.38.25-2.4-.32-2.82-1.68-.53-1.75-2.11-11.79-2.22-13.87s1.17-4.13,1.02-5.91c-.17-2.07-2.61-3.73-3.39-5.63-3.42-8.42-4.55-18.31-4.49-27.31-1.1-1.46-3.63.01-4.95-.76-2.74-1.6-2.54-13.57-3.64-15.87-.57-1.2-2.65-1.5-3.55-2.7-2.33-3.1-1.01-10.27-5.96-9.27-.09-.31.09-.69,0-1-.98-3.34-1.12-6.35-6.29-4.83-7.96,2.34,1.3,20.15,2.23,24.39.7,3.2.28,8.26,1.09,11.93.64,2.89,1.79,1.15,3.98,1.51.02.67-.02,1.33,0,2,.16,5.22-.85,11.86.14,17.27.34,1.85,2.48,3.17,2.84,5.3.53,3.07-1.08,5.24-1,6.86.03.59,1.75.42,1.99,1.27,4.5,15.97,3.86,33.48,4.14,49.69.07,3.96,3.15,8.01,3.01,11.1-.15,3.26-3.15,4.09-3.14,5.99,0,1.35,3.6,5.63,3.97,9.13.85,7.96-2.48,27.25.27,32.71,1.73,3.42,2.55,1.76,3.64,8.33,1.07,6.48-1.24,13.45-.91,15.73.1.66,1.84.52,2.04,1.3,1.02,4.11,1.82,23.16,2.06,28.79.37,8.56-2.55,5.11-3.91,6.66-.34.39-.13,4.17-.62,5.91-1.1,3.9-4.67,4.22-4.45,8.36.26,4.91,3.15,4.65,4.26,6.86.74,1.46.44,3.48,1.63,5.3,2.4,3.65,7.48,2.29,6.02,9.9-.28,1.48-1.98,2.72-1.79,3.85,3.12,19.11,5.79,39.58,6.85,59.25.47,8.71-.38,20.1,1.03,28.89.42,2.64,2.46,4.48,2.88,7.12,1.05,6.59-.18,15.89,1.12,22.88.63,3.39,3.04,7.66,3.71,11.29,1.43,7.7.08,13.83-.76,21.26l4.47-2.01c1.81.37,3.55,9.04,4.74,11.33.7,1.35,2.59,1.49,2.8,2.38.8,3.46.17,6.47,2.23,10.58.78,1.57,2.7,1.58,2.83,2.36.25,1.48-1.7,4.35-1.08,6.35h4.01c.44.44-2.34,10.88-2.74,11.77-1.53,3.44-4.03,1.67-6.57,2.26-.85.2-.28,1.81-2.13,2.05-3.79.5-16.34.5-20.14,0-1.85-.24-1.31-1.87-2.12-2.06-2.72-.64-6.27.43-9.55-.29-2.39-.53-6.74-4.16-8.53-4.57-2.18-.5-3.44.89-4.67.87-.39,0-1.97-3.88-6.57-2.03-1.78-6.73,4.01-4.56,5-8.99l-3.38-.89c-2.96,5.84-7.48,2.48-12.08,5.93-4.06-2.71-2.15-6.01-2.74-7.83-.11-.35-3.6-1.71-3.86-3.69-.61-4.71.29-11.05.1-16.08-1.34-35.47-.42-72.31-3.06-107.94-.16-2.21-.69-5.7-1.98-7.52-.03-1,.03-2,0-3,1.5-1.57.99-3.56,1.03-5.46.2-10.23,1.14-21.13,1.02-31.09-.15-12.36-1.71-18.05-.13-31.03,1.04-8.57-2.69-12.4-3.03-17.93-.27-4.51,2.73-7.44.84-15.72-3.36-14.71-.98-22.16-2.65-35.34-.24-1.91-1.92-.95-2.16-2.87-.78-6.13-.03-16.45,1.08-22.57.83-4.59,5.89-11.56-3-11-.87-5.74.31-2.99,1-5,9.33,1.1-.04-8.17-4-6-1.16-2.17-2.37-5.33-3.53-7.01-.62-.89-2.18-.75-2.47-.99-.64-.55,1.78-1.68-3-2-2.65-.18-9.16-.49-11.31.02-.76.18-.63,1.8-1.37,1.96-2.02.45-4.46-.39-6.58.06-.93.2-1.23,1.58-1.74,1.96-1.04.76-3.06-.13-3,4-1.64,1.18-5.85,3.28-6.73,4.27-1.8,2.04.17,4.49-5.08,3.89-4.68,9.14-9.26,15.76-12.19,25.84-2.36-.83-3.45,3.83-3.73,5.68-.1.68.73,1.22.73,1.32-.53,6.97-.67,13.83-1,21l-2.01.51v2.49s2.01,0,2.01,0c-.11,2.89-.91,5.67-1,9-3.56-.41-4.36,6.28,0,6-.25,11.97.05,24.03,0,36l-2.01.51v2.49s2.01,0,2.01,0c0,2.99,0,6.01,0,9-3.02-.56-1.93,1.53-2,3.45-.08,2.33-.09,4.76,0,7.09.08,1.92-1.03,4.01,2,3.45.12,27.34.91,54.65,1,82l-2.02.63.02,7.38h2c0,18,1.96,42.96-1,59.99-.21,1.19-2.43,2.94,0,5-1.09,8.71.52,20.55-3.73,27.73-.67,1.13-7.45,7.14-7.98,7.25-2.08.41-7.66,1.2-9.29,2.03h-6.01s0,2,0,2c-1.32.06-2.7-.15-4,0-3.73.42-1.34,1.44-2,2-1.05.88-4.39-1.92-6-2-2.01-.1-6.45,1.37-6,4-1.67-.01-3.33,0-5,0-.12,0-.64-.86-1.45-.86-1.97,0-4.3,1.28-6.53.89l-.02,1.97c-1,.02-2-.01-3,0,1.1-2.56-8.91-4.06-9.44-4.03-.45.02-2.13,6.13-5.19-2.01-4.41-.56-3.42.72-3.37,4.04-1.74-.72-4.77,1.39-5-3,8.42-.73,2.21-7.79,0-1h-4c-1.05-2.91,1.47-4.67,2-6h2s-1-2-1-2c.31-.91.93-1.75,1-2,3.48-1.11,5.8,3.96,7.95.45-.67-2.27-1.28-4.56-1.03-6.98.3-2.86,4.31-5.61.08-7.47.97-1.74,1.42-6.47,2-8,.67-.28,2.32.68,3.11-.58,2.43-3.89,3.2-16.74,10.9-15.43l-2.01-7.99c9.3.12,3.13-4.76,3.04-7.5-.05-1.57,1.77-3.22,1.97-5.09.44-4.08-2.65-7.47,0-12.72,5.53-10.97,2.23-34.38,2.95-48.23.58-11.07,2.7-21.63,3.09-32.92.86-25.23-1.57-54.81,3.93-78.23,3.07-13.05-1.21-34.86-1.01-48.86.16-11.55,3.11-21.18,3-32.91-.09-9.32-.49-21.1,0-30.08.25-4.44,2.76-9.13,2.84-12.95.07-3.23-2.11-7.73-1.8-10.93.26-2.72,2.68-6.23,2.98-10.1.31-4.08-1.66-10.24-1.03-12.79.24-.96,2.5-1.23,3.5-2.72.74-1.1,3.32-9.47,3.32-10.69-.02-4.41-5.95-.52-4.72-7.71.65-3.76,4.45-5.72,4.7-8.21.18-1.82-1.54-3.73-1.61-5.83-.21-6.18,1.87-21.28,2.96-27.91.53-3.19,1.81-6.24,2.06-9.5l2.82-.12c-2.39-4.07.69-7.5.81-10.71.11-2.86-3.45-2.5-4.82-3.28-.09-.05.45-1.74-.65-2.03-2.21-.58-18.84-.38-21.92-.04-10.15,1.1-20.82.83-30,1.99-1.91.24-.95,1.92-2.87,2.16-14.35,1.81-43.1.37-57.11-2.03-6.46-1.1-7.31,1.5-9.14,1.93-8.03,1.88-15.5-2.8-23.31-1.98-1.64-3.56,4.31-5.84,3.99-7.48-5.45-5.58-10.24-4.94-17-2.5-.26,5.45,7.87-1.11,9,0l-2.71,6.01-13.25-.05c.61-6.12-4-6.49-6.68-1.94-4.7.9-5.34-3.85-3.86-4.02,5.86,1.28,7.45-3.44,13.49-2-.89-6.4-6.28-1.21-8.46-1.07-2.35.15-8.6-3.45-5.94-4.91,5.82-2.49,11.44-2.23,17.67-1.97l2.81,3.87c5.46-3.8,8.24,1.51,13.18,3.32,8.62,3.17,4.79-2.25,5.73-3.24,2.84.4,6.7-.58,9.32.03.81.19.27,1.81,2.12,2.06,4.55.59,10.29-.66,15.02-.04,1.51.2,2.68,1.88,4.04,1.93s3.55-1.77,5.97-2c4.85-.46,10.26.9,14.57.57s7.66-3.67,12.28-2.51c.76.19.61,1.76,1.37,1.95,4.38,1.09,7.08-1.56,10.78-2.01,12.63-1.53,31.85-1.52,45.08-1.97,1.92-.06,4.01,1.02,3.45-2,1.33,0,2.67.03,4,0l.63,2.02,5.38-.02v-2c5.51-.28,3.12-.53,5.79-1.94.8-.42,2.44.48,3.32-.64,1.49-1.89.52-5.31-.12-7.42-1.31-.66-2.72.98-2.99,1-.66.05-1.34-.03-2,0,.84-3.91-1.63-3.35-4.6-3.07-3.32.32-1.9,1.9-3.83,2.15-7.55.99-17.55-1.12-25.13-.16-1.91.24-.95,1.92-2.87,2.16-2.79.35-10.25.29-13.09-.08-1.46-.19-3.1-.76-1.48-2,5.26,1.32,9.93-1.63,14.49-2.01,14.93-1.27,33.88-.12,48.07-1.91,1.91-.24.95-1.92,2.87-2.16,6.68-.84,15.45,1,22.13.16,1.91-.24.95-1.92,2.87-2.16,12.89-1.63,29.79-1.39,43.11-1.92,1.93-.08,4.01,1.03,3.45-2,6.32-.15,14.69.82,20.57.08,1.91-.24.95-1.92,2.87-2.16,5.48-.69,12.66.85,18.13.16,1.91-.24.95-1.92,2.87-2.16,10.78-1.36,21-.29,33.02-1.97,14.95-2.09,28.39,3.87,41.93-5.55,2.24-1.56,3.84.31,6.07-4.5.54-1.17.32-2.36.55-2.91.12-.28-.11-.71,0-1ZM272,448.01c-2.47-.26-5.26-.08-4.99,2.99,2.47.26,5.26.08,4.99-2.99ZM485.99,461.01h-1.99v2.99h1.99v-2.99ZM502.01,507c4.94,1.05,5.03-4.59,1.48-5.99-2.65-1.04-1.14,4.99-1.48,5.99ZM511.99,540.01h-1.99v3.99h1.99v-3.99ZM517.99,568c-5.95-.96-5.16,7.78.01,5.49v-5.49ZM529,600.01h-1.98s-1.01,4.99-1.01,4.99h1.98s1.01-4.99,1.01-4.99ZM453.93,616.05c-4.24-1.28-3.82,3.75-2.92,6.95l3.91-1.64-.99-5.31ZM503.99,800.01h-1.99v3.99h1.99v-3.99ZM309.01,916c2.87.87,8.42-5.5,4.48-6.99-3.15-1.19-4.85,4.77-4.48,6.99ZM461.99,928.01h-1.99v2.99h1.99v-2.99ZM531,945.99l-1.51-3.99-3.46,2.01.48,1.98h4.49Z"/>
  <path class="cls-1" d="M451,797c1.29,1.82,1.82,5.31,1.98,7.52,2.63,35.63,1.71,72.47,3.06,107.94.19,5.03-.71,11.37-.1,16.08.25,1.98,3.74,3.34,3.86,3.69.59,1.82-1.31,5.12,2.74,7.83,4.59-3.45,9.12-.09,12.08-5.93l3.38.89c-.99,4.43-6.78,2.26-5,8.99,4.6-1.85,6.19,2.02,6.57,2.03,1.23.02,2.5-1.37,4.67-.87,1.79.41,6.14,4.04,8.53,4.57,3.27.72,6.82-.35,9.55.29.81.19.27,1.81,2.12,2.06,3.79.5,16.35.5,20.14,0,1.85-.24,1.28-1.85,2.13-2.05,2.55-.59,5.04,1.18,6.57-2.26.4-.89,3.18-11.34,2.74-11.77h-4.01c-.62-2.01,1.33-4.87,1.08-6.35-.13-.78-2.05-.79-2.83-2.36-2.06-4.12-1.43-7.13-2.23-10.58-.21-.89-2.1-1.03-2.8-2.38-1.19-2.3-2.94-10.96-4.74-11.33l-4.47,2.01c.84-7.43,2.19-13.56.76-21.26-.67-3.63-3.08-7.9-3.71-11.29-1.3-6.99-.06-16.3-1.12-22.88-.42-2.64-2.46-4.48-2.88-7.12-1.4-8.79-.56-20.18-1.03-28.89-1.06-19.67-3.73-40.14-6.85-59.25-.18-1.13,1.51-2.37,1.79-3.85,1.46-7.6-3.62-6.24-6.02-9.9-1.2-1.82-.9-3.83-1.63-5.3-1.11-2.21-4-1.94-4.26-6.86-.22-4.14,3.35-4.46,4.45-8.36.49-1.74.28-5.52.62-5.91,1.36-1.55,4.28,1.9,3.91-6.66-.24-5.63-1.04-24.68-2.06-28.79-.19-.78-1.94-.64-2.04-1.3-.34-2.28,1.97-9.25.91-15.73-1.08-6.57-1.91-4.91-3.64-8.33-2.76-5.46.58-24.75-.27-32.71-.37-3.5-3.97-7.78-3.97-9.13,0-1.9,2.99-2.73,3.14-5.99s-2.94-7.14-3.01-11.1c-.28-16.21.36-33.72-4.14-49.69-.24-.85-1.96-.68-1.99-1.27-.08-1.62,1.53-3.8,1-6.86-.36-2.12-2.5-3.45-2.84-5.3-.99-5.41.02-12.05-.14-17.27,5.34,21.07,8.66,42.86,10.99,64.51,4.23,39.23,8.74,84.8,9.99,124,.1,3.02.37,6.88-.21,9.76-1.43,7.04-7.38,8.49-5.71,19.17,1.09,6.97,6.69,7.7,8.43,10.57,1.12,1.84,1.2,22.29,1.52,26.48,3.09,40.6,4.74,95.19,17.95,133.05,3.69,10.57,17.63,35.35,17,44.91-.49,7.4-15.74,9.57-21.44,9.62-12.32.11-47.65-6.65-57.45-13.64s-7.46-20.57-8.08-30.92c-2.25-38.14-1.9-76.32-2.99-114.51Z"/>
  <path class="cls-1" d="M432,600v2s3,0,3,0c.29.25,1.85.1,2.47.99,1.17,1.67,2.37,4.84,3.53,7.01.17.31-.33,1.32.07,1.9l3.93.11c-.22,1.17.31,3.08,0,3.99-.69,2.01-1.87-.74-1,5,.56,3.68,1.44,7.21,1,11.01h2c-1.11,6.11-1.85,16.43-1.08,22.56.24,1.91,1.92.95,2.16,2.87,1.67,13.18-.71,20.63,2.65,35.34,1.89,8.28-1.11,11.21-.84,15.72.34,5.54,4.07,9.37,3.03,17.93-1.58,12.98-.02,18.66.13,31.03.12,9.96-.82,20.86-1.02,31.09-.04,1.9.47,3.89-1.03,5.46-1.48-51.91-1.14-109.93-8.02-161.48-2.92-21.87-6.17-40.76-31.92-23.95-30.02,19.59-29.17,51.67-30.08,83.92-.71,25.29-.15,50.97.01,76.51.27,42.75.5,86.02,1.04,128.46.07,5.84-.14,11.71-.04,17.54-1.75,6.47-2.93,13.4-4,20-3.97,4.89-9.55,5.21-14,9-12.41,1.4-25.41,7.01-38.52,7.98-6.56.49-30.96.3-35.22-4.24-3.29-3.51,1.99-17.71,5.73-20.75-.77,2.8-.53,5.33-1,7-.07.25-.69,1.09-1,2-.05.14-.67,1.17-1,2-.53,1.33-3.05,3.09-2,6h4c-.07.23-.02.68,0,1,.23,4.39,3.26,2.28,5,3,6.74,2.8,10.3,2.11,18,2,1-.01,2,.02,3,0,2.66-.06,5.35.06,8.01,0v-2c1.66,0,3.33-.01,4.99,0,2,.01,4.01,0,6.01,0v-4c1.6.08,4.95,2.88,5.99,2h2s0-2,0-2c1.3-.15,2.68.06,4,0,6.97-.32,4.46-1.22,6-2,1.63-.83,7.21-1.62,9.29-2.03.53-.11,7.32-6.12,7.98-7.25,4.24-7.17,2.63-19.02,3.73-27.73.04-.35,2.71-3.75,0-5,2.96-17.03.99-42,1-60,0-2.66,0-5.34,0-8-.09-27.35-.88-54.66-1-82-.02-4.66.01-9.34,0-14,0-2.99,0-6.01,0-9,0-1,0-2,0-3,.05-11.97-.25-24.03,0-36,.04-2-.05-4,0-6,.09-3.33.89-6.11,1-9,.04-1-.05-2,0-3,.33-7.17.47-14.03,1-21,3.43-1.34,2.35-4.78,3-7,2.93-10.08,7.51-16.7,12.19-25.84,5.26.6,3.28-1.85,5.08-3.89.87-.99,5.09-3.09,6.73-4.27.99-.71,3.03.23,3-4,.52-.38.81-1.76,1.74-1.96,2.12-.45,4.56.39,6.58-.06.74-.16.6-1.78,1.37-1.96,2.15-.51,8.66-.2,11.31-.02Z"/>
  <path class="cls-1" d="M496,464c29.33,57.76,38.31,125.15,44.99,189-8.05-4.51-14.81-2.88-22.98,0-3.57-45.29-10.28-90.37-23.74-133.76-4.13-13.31-10.37-26.37-14.26-39.24,4.95-1.01,3.64,6.17,5.96,9.27.9,1.2,2.98,1.5,3.55,2.7,1.1,2.3.9,14.27,3.64,15.87,1.32.77,3.85-.7,4.95.76-.06,9,1.07,18.89,4.49,27.31.77,1.9,3.22,3.56,3.39,5.63.15,1.79-1.14,3.76-1.02,5.91s1.69,12.12,2.22,13.87c.41,1.36,1.44,1.93,2.82,1.68v-3s1.99,0,1.99,0l.03,2.5c-.21.62-1.97.4-2.03.49-3.46,5.75,4.13,19.46,4.05,21.48-.02.48-1.84.4-2.04,1.18-1.69,6.85,2.26,6.28,2.83,7.96.33.97,1.81,10.62,1.9,12.14.17,2.61-1.32,5.44-.74,8.24h3.99s0-6,0-6c7.97,1.47.79,10.44,1.88,15.93l-2.95.61,1.11,23.42c2.66.33,3.54.4,4.6-1.97l1.88-.09c2.92,3.09,5.33,2.06,9.47,2.08.68-5.51-7.18-5.49-11-6-.55-2.85.97-1.77,2.91-2.05l.1-3.96,3.85.16,1.04,3.25,3.1.61c-.4-5.31.58-11.3,0-16.51-.39-3.57-2.83-6.21-2.98-8.04-.13-1.67,1.13-3.41.99-4.96-.49-5.34-4.7-36.87-6.05-39.71-.57-1.21-2.16-1.29-2.82-2.39-4.05-6.75.29-10.52-1.11-15.71-.3-1.13-2.6-1.06-2.89-2.25-.31-1.25,1.76-6.93.93-9.84-6.43-1.78-2.89-3.39-3.26-7.82-.46-5.58-6.08-13.79-5.77-20.15-4.79-.85-2.31-2.33-3.48-5.69-3.05-8.79-5.98-17.09-7.53-26.31-3.53-.36-5-8.35-5.98-12.22-.34-1.34.01-3.01-.06-4.42Z"/>
  <path class="cls-12" d="M564,318c.12.61-.11,1.38,0,2,3.01,17.49,2.92,36.67,4.01,54.49,1.3,21.29,9.6,42.36-18.78,47.24l-63.23,6.27c-5.04-.22-10-.22-15-1,.35-.69-.74-2.71.56-3.05,1.85.25,4.03-.33,5.77.06.79.18.78,1.9,1.17,2,2.97.79,1.81-1.84,3.93-2.1,8.81-1.09,20.38,1.3,29.13.16,1.85-.24,1.31-1.87,2.12-2.06,3.47-.81,9.1.54,12.88.06,1.91-.24.95-1.92,2.87-2.16,8.86-1.12,17.41.05,25.88-1.94.75-.18.6-1.79,1.37-1.97,1.51-.34,3.29.32,4.65.03,1.56-.33,6.05-13.8,6.22-16s-.19-11.48-.56-13.54c-.31-1.71-1.07-2.81-2.99-2.5.41,4.77.35,11.76-6.01,11.99,6.84-17.26,2.07-40.89,1-60-.07-1.33.07-2.67,0-4-.53-9.33-1.43-18.69-2-28-.02-.33,0-.67,0-1,4.47,3.5,5.98,9.69,7,15ZM563.99,330l-3.89,1.57c2.45,11.14,1.15,22.71,1.91,33.91.22,3.22,1.1,11.22,2.04,13.96.56,1.63.73,2.92,2.94,2.55l-3-51.99Z"/>
  <path class="cls-2" d="M500,572c3.51,26.4,10.12,53.59,10.99,80.51.23,7.23-1.11,10.78-2.99,17.49-.35.24-.11,1.56-1.99.99-.25-6.36-.4-13.17-1.01-19.49-.34-3.49-1.73-8.29-1.99-11.5-1.84-22.56-3.43-45.43-5-68,.67,0,1.33,0,2,0Z"/>
  <path class="cls-27" d="M564,320c3.22-.56,1.72,1.62,1.95,3.5,3.36,27.24,4.37,53.47,5.06,80.99.05,1.97,1.16,3.99,1.1,6.04-1.96,3.15-5.28,5.81-6.11,9.47-2.28.29-5.2-.49-7.32.02-.46.11-6.9,3.86-7.36,3.96-3.06.7-6.85-1.75-7.83,2.03l-4.03-2.09c-6.82,4.63-18.65.86-27.02,2.02-2.24.31-3.26,1.63-4.99,2.01-2.98.66-6.04-1.57-6.97,2.05l-1.46-.05c-.08-3.53-9.4-1.8-13.03-1.96l63.23-6.27c28.38-4.87,20.08-25.95,18.78-47.24-1.09-17.82-1-37-4.01-54.49Z"/>
  <path class="cls-7" d="M527,739h-1c.15-1.56.48-18.26-3.99-15l-4.75,10.62c-.48,3.38,2.5,4.68,2.73,5.38-1.57,2.78-5.05,8.33-6,11-.1-4.42,3.51-5.93,2.01-11-5.14,1.23-5.63-1.15-8.52-3.03-6.03-3.9-3.05-3.73-6.49-7.97-.52-2.58,1.1-3.5,2-5-1.21,7.96,1.37,13.44,10.29,10.79,5.23-1.55,9.84-20.57,13.39-21.64,8.81-2.65,1.74,10.08,1.37,12.41-.64,4.09-.39,8.68-1.06,13.44Z"/>
  <path class="cls-9" d="M381,769c3.03-.56,1.92,1.53,2,3.45,1.86,47.15-.56,95.64-1,142.55-.1-5.83.12-11.7.04-17.54-.54-42.44-.78-85.71-1.04-128.46Z"/>
  <path class="cls-26" d="M500,572c.65,0,1.29-.17,1.92.06-.36,4.03,2.21,8.29,2.81,11.71,3.36,19.26,8.92,57.08,7.25,75.71-.33,3.64-.9,8.36-3.98,10.52,1.87-6.72,3.22-10.27,2.99-17.49-.87-26.91-7.48-54.11-10.99-80.51Z"/>
  <path class="cls-26" d="M498,572c1.57,22.57,3.16,45.44,5,68-3.23-7.78-1.24-16.44-2.02-24.48-1.51-15.65-4.94-29.93-3.98-45.52.97.25.94,1.16,1,2Z"/>
  <path class="cls-1" d="M480,479c-3-2.59-6.76-3.56-7.08,1.49-.49,7.67,7.78,23.34,8.08,31.51-2.18-.36-3.34,1.38-3.98-1.51-.81-3.67-.38-8.73-1.09-11.93-.93-4.24-10.19-22.05-2.23-24.39,5.17-1.52,5.31,1.49,6.29,4.83Z"/>
  <path class="cls-3" d="M520,741c.13,4.86-3.45,11.92-4,17-.2.1-.78-.18-.99.51.09.51-.12,1.07,0,1.49l-1.99,1c.13-1.95-.22-4.08-.01-6,.13-1.13.61-2.9,1-4,.95-2.67,4.43-8.22,6-11,.08.24,0,.66,0,1Z"/>
  <path class="cls-27" d="M377,940c-.12.13-1.33-.23-1.74.22-1.01,1.1-.64,3.52-1.91,3.83-2.3.56-6.56-.36-9.34-.05,4.45-3.79,10.03-4.11,14-9-.08.51,2.17,1.43-1,5Z"/>
  <path class="cls-26" d="M500,567h-3c-.09-.31-1.43-1.16-1.8-2.65-1.55-6.41.94-3.85,3.3-7.36.72-.06,1.36,8.69,1.5,10.01Z"/>
  <path class="cls-12" d="M496,464c-.98-.08-2.04.12-3,0-1.78-2.03-.8-4.94-1.2-6.33s-1.66-1.43-1.8-1.67c-.96-1.59-2.87-5.11-4-6l-1-2c.12-.54.21-1.45-.22-1.81-.87-.54-1.97-.06-2.78-.19-.54-2.99-3.42-4.33-6-5,.09-2.19-.37-5.29-3-5v-2c11.74,7.34,16.98,18.14,23,30Z"/>
  <path class="cls-1" d="M473,434v2c-5.76,1.44-7.44.67-4-4h1c1.39.08,2.11,1.44,3,2Z"/>
  <path class="cls-3" d="M500,567c.17,1.61-.21,3.41,0,5-.67,0-1.33,0-2,0-.06-.84-.03-1.75-1-2,.05-.8.17-2.42,0-3h3Z"/>
  <path class="cls-12" d="M469,430l1,2h-2.99c-1.1-2.78,1.7-1.68,1.99-2Z"/>
  <path class="cls-15" d="M239,225c17.86-30.68,89.07-64.35,122.48-76.02,31.75-11.09,102.75-29.79,131.85-9.82,12.51,8.58,17.55,28.96,23.81,42.19,7.35,15.57,14.92,28.03,20.14,44.86.35,1.12,1.5,1.79,1.7,2.3,1.62,4.04-6.51-2.3-7.31-2.69-1.95-.95-3.92-1.12-5.68-1.82-16.24-6.53-37.01-9.81-54.52-11.98-78.34-9.73-150.41-.16-226.48,16.98-2.71.61-5.33,1.23-7.99,2-.22-.22,1.64-5.39,1.99-6Z"/>
  <path class="cls-19" d="M476,124.99c-38.5-4.74-76.64,4.25-112.99,16l-2-47.99c18-1.95,32.17-18.66,48.47-25.03,21.11-8.25,41.18,10.32,50.33,27.72l16.19,29.3Z"/>
  <path class="cls-15" d="M513,236c-.32.06-.67-.04-1,0-2.42.28-8.73,4.28-13.16,5.34-24.52,5.84-77.6-6.3-105.35-8.33-31.98-2.35-65.27-2.15-96.73,4.25-20.1,4.08-40.68,12.7-60.51,16.51-2.07.4-4.16.28-6.25.24-1.58-.94-6.79,1.56-4.22-4.71,3.07-7.47,15.82-12.01,23.22-14.29,72.63-22.39,185.18-25.61,259.25-9.75,1.56.33,9.69,2.36,9.72,3.25l-4.98,7.51Z"/>
  <path class="cls-24" d="M512,236c1.74,3.27-2.18,5.49-2.11,6.47.03.41,1.92,7.18,2.21,7.45.43.39,2.42-.23,3.62.36.22.11,2.61,3.07,3.28,3.73,2.33,2.27,5.78,7.45,8.8,9.94,1.48,1.22,3.46,1.49,4.2,2.06.26.2.83.76,1,1,1.91,2.71-.02,3.61,0,4l-8.65-7.35-16.98-17.46c-12.97,4.33-25.93,4.23-39.36,2.82l10.37,5.16c.82.24,1.25,1.59,1.63,1.83v4c-3.46,1.35-4.02-1.77-4.72-1.98-1.11-.32-2.51.19-3.28-.02-29.81-8.5-39.48-8.44-65,10-.3.22-1.53.21-2.55.94-.94.67-7.16,7.9-8.09,9.38-.78,1.23-.07,3.82-1.86,4.67l-2.51-.51c-.14-.63.07-1.19.21-1.78.68-2.79,4.18-8.21,5.8-10.71.12-.19,3.08.59,2-3,.31-.23.56-.8,1-1,.58-.26,2.13.2,3,0v-1.99c-.61-.16-1.59.18-2,0-.31-.14-.62-.77-1-1-8.78-2.68-19.57.14-28.52-1-1.46-.19-3.1-.76-1.48-2,4.57-.5,10.15.63,14.56.07,1.91-.24.96-1.92,2.87-2.16,8.34-1.03,18.44-.42,26.98-1.87,1.18-.18.38-1.8.59-2.05,1.58-1.97,4.58-2.63,6.74-3.76l17.26-5.23c-15.99-1.86-31.9-4.03-48-5.01-27.11-1.65-57.48-2.43-84.24,2.29-2.98.53-3.58.04-3.76,2.71-.07.99-.01,2.01,0,3l3.88.14c.47.57-.04,1.5.12,1.86h-4c-3.46-2.02-8.55-2.77-9,2-.03.32-.02.68,0,1l-1.01,5.01-3.38.04c-.67-.17-1.41-6.46-7.25-7.98-1.77-.46-1.04,1.63-2.06,1.92-1.13.32-2.99.05-4.3.01-2.32-.07-7.17-1.29-8.33-.91-1.75.57-1.81,4.06-4.12,3.9-4.3.24-3.99-6.02-8.54-5,1.11,5.3-2.44,5.38-4.01,7.46-5.83,7.72-5.14,9.94-17,8.55,2.88-1.49,6.06-3.92,9.8-5.74,1.35-.66,2.76.64,2.19-2.25l-17.99,2.99c.25-.5-.31-2.09.04-2.93l6.95-.08c.95-3.9-4.24-.88-5.8-2.25-.45-.4-.11-1.69-.2-1.74,2.09.04,4.18.16,6.25-.24,19.82-3.81,40.41-12.42,60.51-16.51,31.47-6.39,64.75-6.59,96.73-4.25,27.75,2.04,80.83,14.17,105.35,8.33,4.43-1.06,10.74-5.06,13.16-5.34Z"/>
  <path class="cls-5" d="M335,85c.61.39,1.37,2.17,3.28,3.21,3.38,1.85,14.67,4.64,15.53,7.48l2.19,45.3c-21.38-5.09-42.76-10.22-64.99-9-.53-.47,5.41-10.8,6.21-12.32.67-1.26.59-3.36.78-3.67,5.15-8.12,9.62-17.82,14.79-26.71,1.59-2.73,7.33-13.02,10.5-12.17,3.42,3.45,7.74,5.36,11.71,7.89Z"/>
  <path class="cls-15" d="M257,179c.12-.23,1.57-.99,2.2-2.26,3.78-7.59,11.42-26.8,15.95-32.1,1.36-1.59,6.05-4.4,8.03-4.97,11.39-3.31,48.32,1.33,60.06,5.65,1.77.65,3.36.06,2.77,2.67-17.92,6.21-36.02,14.65-52.51,24-17.35,9.84-35.49,21.32-48.99,36.01-.83-3.52,2.82-7.62,4.5-11,2.93-5.85,5.22-12.38,8-18Z"/>
  <path class="cls-24" d="M526,224c-1.24,2.07-4.82,1.72-6.1,3.4-2.04,2.69.81,7.49-4.94,9.23-1.48.45-1.86-.64-1.96-.62l4.98-7.51c-.03-.89-8.16-2.91-9.72-3.25-74.07-15.86-186.62-12.64-259.25,9.75-3-1.56-4.72-2.06-4-6,76.08-17.14,148.15-26.71,226.48-16.98,17.5,2.17,38.27,5.46,54.52,11.98Z"/>
  <path class="cls-16" d="M528,240c5.91-1.05,10.79-3.5,12.01-10,4.3-.6,3.28,6.12,6.99,6,0,1-.04,2,0,3-4.57.07-2.19,7.04-3.51,9.99-.17.38-4.42,6.56-4.76,6.81-1.24.88-4.04-1.14-2.48,3.46.36,1.06,1.97,2.14,1.77,3.22l-6.01,3.53c-.74-.57-2.72-.84-4.2-2.06-3.02-2.49-6.47-7.67-8.8-9.94,1.86-1.25,2.43-4.23,4.07-5.43,4.07-2.99,5.04,1.4,4.93-6.57,0-.67,0-1.33,0-2Z"/>
  <path class="cls-15" d="M328,71c17.96-1.05,33.67,9.93,51.99,5.01.55,2.38-.4,1.62-1.3,2.23-17.36,11.85-27.82,11.69-44.7-1.23-1.43-1.09-5.75-4.54-6-6Z"/>
  <path class="cls-24" d="M528,240c0,.67,0,1.33,0,2h-1.99c-.37-2.85.32-1.7,1.99-2Z"/>
  <path class="cls-15" d="M381.5,75c.65.33.65.67,0,1v-1Z"/>
  <path class="cls-18" d="M183,332c.88-1,4.07-4.85,4.98-4,1.89,7.85,8.67,11.54,15,15.5-9.7,11.19-18.82,23.19-26.98,35.5s-23.23,34.64-10.55,48.05c5.83,6.17,25.07,10.24,33.55,10.95.99.08,2.01-.06,3,0,2.4,1.08,6.9,1.84,9.51,1.99,36.83,2.13,73.67.41,110.49-1.99h10c.56,3.02-1.53,1.94-3.45,2-13.23.45-32.45.44-45.08,1.97-3.7.45-6.4,3.1-10.78,2.01-.76-.19-.62-1.76-1.37-1.95-4.62-1.16-7.86,2.18-12.28,2.51s-9.72-1.03-14.57-.57c-2.43.23-4.55,2.05-5.97,2s-2.53-1.73-4.04-1.93c-4.73-.62-10.47.63-15.02.04-1.85-.24-1.31-1.87-2.12-2.06-2.62-.61-6.48.37-9.32-.03-.94.99,2.89,6.41-5.73,3.24-4.94-1.81-7.72-7.12-13.18-3.32l-2.81-3.87c-6.24-.26-11.86-.52-17.67,1.97-2.66,1.46,3.59,5.06,5.94,4.91,2.18-.14,7.57-5.33,8.46,1.07-6.04-1.44-7.63,3.28-13.49,2-1.48.17-.84,4.93,3.86,4.02,2.67-4.55,7.29-4.18,6.68,1.94l13.25.05,2.71-6.01c-1.13-1.1-9.26,5.46-9,0,6.76-2.43,11.54-3.08,17,2.5.32,1.64-5.63,3.92-3.99,7.48,7.8-.82,15.28,3.87,23.31,1.98,1.84-.43,2.68-3.03,9.14-1.93,14.01,2.4,42.76,3.84,57.11,2.03,1.91-.24.95-1.92,2.87-2.16,9.18-1.16,19.85-.89,30-1.99,3.08-.33,19.71-.53,21.92.04,1.1.29.56,1.97.65,2.03,1.37.79,4.93.42,4.82,3.28-.13,3.22-3.2,6.65-.81,10.71l-2.82.12c-.25,3.26-1.53,6.31-2.06,9.5-1.09,6.63-3.17,21.73-2.96,27.91.07,2.1,1.79,4.02,1.61,5.83-.25,2.49-4.05,4.45-4.7,8.21-1.24,7.19,4.69,3.31,4.72,7.71,0,1.22-2.58,9.59-3.32,10.69-1,1.5-3.26,1.76-3.5,2.72-.64,2.55,1.34,8.7,1.03,12.79s-2.71,7.39-2.98,10.1c-.31,3.2,1.86,7.7,1.8,10.93-.08,3.81-2.59,8.51-2.84,12.95-.5,8.98-.09,20.76,0,30.08.11,11.74-2.83,21.37-3,32.91-.2,14,4.08,35.81,1.01,48.86-5.51,23.41-3.08,53-3.93,78.23-.38,11.29-2.5,21.85-3.09,32.92-.73,13.86,2.58,37.27-2.95,48.23-2.65,5.25.44,8.64,0,12.72-.2,1.87-2.03,3.52-1.97,5.09.1,2.74,6.27,7.62-3.04,7.5l2.01,7.99c-7.7-1.31-8.47,11.54-10.9,15.43-.79,1.26-2.44.3-3.11.58,9.81-26.09,14.46-37.55,16.99-66.51,10.01-114.46,2.79-229.46,18.15-343.85.76-5.63,7.56-41.94,5.86-43.64l-50.46,4.04c-45.3-.36-179.46,15.73-152.29-67.29,4.77-14.56,14.45-24.24,19.74-36.76,4.3-2.18,2.8-3.29,5-6,.29-.36.71-.63,1-1,4.83-6.04,10.05-13.37,15-19Z"/>
  <path class="cls-18" d="M302,920c4.23,1.86.21,4.61-.08,7.47-.25,2.42.37,4.71,1.03,6.98-2.15,3.51-4.47-1.56-7.95-.45.47-1.67.23-4.2,1-7,.09-.31-.09-.69,0-1,2.85.62,2.66-3.24,3.98-5.32.58-.91,1.97-.59,2.02-.68Z"/>
  <path class="cls-1" d="M302,920c-.05.09-1.44-.23-2.02.68-1.32,2.08-1.14,5.94-3.98,5.32.82-2.82,5.87-13.1,8-14-.58,1.53-1.03,6.26-2,8Z"/>
  <path class="cls-25" d="M221,343c.6-.06,1.83-1.37,2.99-1l4.01,64.01c.66.05,1.34-.04,2,0-.13,1.44-.15,3.57,0,5,.56,5.39,1.41,4.27,4,8,.4.58.6,1.54,1,2,2.53,2.91,2.83,2.36,5,4,.81.61,1.54.7,2,1,1.89,1.25,1.41,1.78,4,3,.66.31,1.12.67,2,1l3,3.99-54-1.99c-3.02-.9-6.89-1.63-10-2-3.3-3.14-8.68-3.5-12.71-5.79-2.34-1.33-3.48-3.92-6.29-4.21-.08-.3.06-.66,0-1-1.7-9.9,3.08-19.43,8-28,5.54-9.66,25.78-37.78,33.46-45.04,4.46-4.22,6.39-2.45,11.54-2.96Z"/>
  <path class="cls-28" d="M268,259c.07.02.4.6,1,1,.36.24.59,1.56,1,2-.37,13.5-23.66,15.01-27.49,26.01-1.29,3.71-1.45,7.91-3.02,11.98-4.6,11.91-10.83,14.73-21.72,19.09-1.24.5-.46,3.5-4.76.92-3.14,11.82,12.01,4.85,17.33,1.84s11.06-9.71,13.84-15.16c2.05-4.02,4.86-17.14,5.8-18.19,3.71-4.13,7.64,1.49,14.01-2.49.43.18.89.56,1,1,.74,3.07.54,5.71,5,4.59,6.27-1.58,21.7-15,29.32-18.76,1.82-.9,3.48-2.12,5.68-1.81-8.69,10.01-20.97,15.92-32,22.99-3.29,2.11-17.57,9.23-14.56,14,3.19,5.06,9.84-2.79,13.56-4.5,4.77-2.19,15.28-5.22,16.82,2.23,2.1,10.15-19.63,10.64-26.82,13.27-16.15,5.9-25.1,14.64-44.74,17.76-6.72,1.07-11.29,0-17.26-2.76-.76-.85-2.89-2.82-3-3-2.08-3.28-3.5-7.41-5-11,.04-.66-.06-1.34,0-2,.09-.99-.06-2.01,0-3,8.54-21.69,39.97-42.07,60.27-52.28,4.41-2.22,10.75-4.99,15.73-3.72Z"/>
  <path class="cls-27" d="M175,390c-.3,1.32-6.45,4.77-4,10.01h-6.01c-1.02,1.06-.84,17.62,3,18.99.06.34-.08.7,0,1,1.03,4.02,1.26,2.61,3.02,4.72.65.78.53,2.72,1.16,3.13.73.47,2.36-.14,3.03.21.98.52.85,1.77,1.49,1.92,2.7.63,7.5-.31,10.31.02,3.11.37,6.98,1.1,10,2,.49.57,1.84,1.42,2,2,.29,1.03-.2,2.8,0,4-8.48-.7-27.72-4.78-33.55-10.95-12.68-13.41,2.62-36.09,10.55-48.05,1.39,2.57-.41,4.17-.94,6.6-.32,1.46.2,3.25-.06,4.4Z"/>
  <path class="cls-6" d="M277,317l-5.69,4.98c-4.64-1.87-9.48,1.66-10.99,2-2.27.51-4.87-.52-7.15.19l-2.21,7.78c-1.96.29-4.01-.17-5.96.05-7.03.77-13.95,2.82-20.89,4.11-.24.29-.29,3.38-.11,3.89-.62-.11-1.51.17-2,0-6.17-2.08-3.58-.98-9.49-.93-3.16.03-9.46-1.07-11.88-3-1.07-.86-.5-1.93-.63-2.07,5.97,2.75,10.54,3.83,17.26,2.76,19.64-3.12,28.59-11.86,44.74-17.76,4.43,2.72,10-1.73,15-2Z"/>
  <path class="cls-26" d="M224,340c2.92,8.22,3.26,18.67,4,28,.16,1.98-.15,4.02,0,6,.26,3.42.64,6.62,1,10,.28,2.61-.54,5.83.2,8.3.52,1.72,2.95,2.2,2.91,5.2-.02,1.75-1.78,4.92-2.11,8.5-.66-.04-1.34.06-2,0l-4.01-64.01c-1.17-.37-2.39.94-2.99,1l1-3c.49.17,1.38-.11,2,0Z"/>
  <path class="cls-12" d="M229,261l17.99-2.99c.56,2.89-.84,1.59-2.19,2.25-3.74,1.82-6.93,4.25-9.8,5.74-1.74.9-5.13,2.39-7,3v-7c.24-.42.86-.72,1-1Z"/>
  <path class="cls-6" d="M197,331l-4.95-1.05c.59-2.62-.97-5.5-1.01-7.65-.03-1.51.95-2.18.96-2.31,1.5,3.59,2.92,7.72,5,11Z"/>
  <path class="cls-7" d="M176,391c-4.92,8.57-9.7,18.1-8,28-3.85-1.38-4.02-17.94-3-19h6.01c-2.46-5.22,3.7-8.67,4-10l1,1Z"/>
  <path class="cls-24" d="M228,269c-7.66,2.5-1.78-3.92,0-7v7Z"/>
  <path class="cls-6" d="M192,315c-.06.99.09,2.01,0,3h-2s0-2.49,0-2.49l2.01-.51Z"/>
  <path class="cls-14" d="M520,660c9.24-1.87,18.51-5.05,23.77,5.73,5.53,11.35,4,39.26,3.23,52.27-.12,2.04-.84,3.96-1,6-.05.66.04,1.34,0,2-1.78,8.71-3.73,17.41-6,26-.83,3.16-.96,6.42-1.95,9.55-.86,2.71-7.18,16.87-8.6,18.4-3.89,4.19-11.13,1.57-12.26-3.68-1.33-6.18,5.12-16.21,7.09-22.49,1.68-5.37,1.96-9.46,2.72-14.78.67-4.76.42-9.35,1.06-13.44.36-2.33,7.43-15.06-1.37-12.41-3.55,1.07-8.16,20.09-13.39,21.64-8.93,2.65-11.5-2.83-10.29-10.79,4.3-7.13,7.74-14.42,8.99-23.51,2.49-18.17-1.32-22.85,8.01-40.49Z"/>
  <path class="cls-7" d="M546,726c-.6,9.28-1.17,13.31-3.72,22.83-.46,1.73.62,3.76-2.28,3.17,2.27-8.59,4.22-17.29,6-26Z"/>
  <path class="cls-13" d="M519,754c2.69.15,3.14-1.15,2.57,2.05-.5,2.82-.85,8.03-4.55,7.95.47-1.67-1.89-3.51-2.01-4-.11-.42.1-.98,0-1.49.21-.69.79-.41.99-.51.07-.03.86,1.16,1.46.08.11-1.5,1.16-2.88,1.54-4.08Z"/>
  <path class="cls-7" d="M547,718l1,6.01h-2c.16-2.05.88-3.97,1-6.01Z"/>
  <path class="cls-10" d="M480,256c-.38-.25-.81-1.59-1.63-1.83l-10.37-5.16c13.43,1.41,26.39,1.52,39.36-2.82l16.98,17.46,8.65,7.35c.01.33-.06.7,0,1,.41,1.97,3.12,3.69,5,4,2.44,5.05,7.28,8.28,10.23,13.27,2.55,29.02,6.06,58.93,6.8,88.19.27,10.55-1.66,18.36-12.81,21.27l-292.66,23.21c-6.57-1.96-11.42-5.98-13.3-12.7l-5.26-67.24v-1c3.66-3.07,9.77-1.62,13-5,.33-.04.68.06,1,0,4.48-.85,13.18-8.43,19.02-10.48,2.22-.78,11.58-3.18,13.04-2.11,1.34,9.94,3.31,17.8,8.71,26.31,12.24,19.28,30.36,26.02,52.72,25.26,26.15-.88,53.87-6.06,79.98-7.04,7.12-.27,11.89,3.47,19,4.08,23.42,2.01,46.08-5.54,59.95-25.13,22.13-31.24,14.17-70.65-17.41-90.91Z"/>
  <path class="cls-27" d="M533,272l3.84.14c.78,1.09.64,2.78,1.16,3.86,1.61.26,4.83-.53,5.87.14.49.32.46,2.33,1.14,3.11,1.61,1.86,4.27,2.75,4.79,5.46.21,1.11-.65,2.26-.6,2.81s1.56.47,1.72,1.24c1.01,4.99,1.43,9.53,1.07,14.66l5.02.58c.57,9.31,1.47,18.67,2,28-3.07.56-1.88-1.54-2-3.46-.28-4.55-.66-9.03-1-13.55h-2.99c-1.06,2.42,1,6.16,1,7.51v21.5h3s0-8.01,0-8.01h2c1.07,19.12,5.84,42.74-1,60.01-.11.29.12.72,0,1-4.5,4-8.5,7.49-14.6,8.9l-92.9,7.1-23.51,2.99c-55.06,1.89-109.94,9.5-165,12,.12-.09-.28-1.39.17-1.78,1.51-1.3,6.78,1.69,5.83-2.21-7.15.2-14.38-.29-21.54,0-1.92.08-4.01-1.03-3.45,2h-1c-.46-.3-1.19-.39-2-1,.23-1.5.11-1.99-1-3v-1.99s-1.49,0-1.49,0l-.51.99c-.53-.15-1.37.1-2,0-.4-.46-.6-1.42-1-2v-1c3.12.43,1.81-.99,1.36-2.89-.86-3.6-3.56-4.35-2.35-9.11-.99-.05-2.01.06-3,0,.33-3.58,2.09-6.75,2.11-8.5.04-2.99-2.39-3.48-2.91-5.2-.75-2.48.08-5.7-.2-8.3h2c-.41-3.56,1.8-9.88-3-10-.15-1.98.16-4.02,0-6,5.86,1.03,1.29-4.53.97-7.47-.61-5.61.52-12.16.01-17.9l2.02-.63,5.26,67.24c1.88,6.71,6.74,10.73,13.3,12.7l292.66-23.21c11.16-2.91,13.08-10.72,12.81-21.27-.74-29.26-4.25-59.17-6.8-88.19-2.95-4.98-7.8-8.22-10.23-13.27-1.88-.31-4.59-2.03-5-4Z"/>
  <path class="cls-27" d="M564,318c-1.02-5.31-2.53-11.5-7-15,.02-1-.03-2,0-3,3.9-3.41,11.36,14.61,7,18Z"/>
  <path class="cls-27" d="M346,429c.66-.03,1.34.05,2,0,1.12,2.15.92,5.96-1.67,6.84-5.11,1.74-18.64-.8-24.33,2.16-36.82,2.4-73.66,4.12-110.49,1.99-2.61-.15-7.11-.91-9.51-1.99.07,0,.5-.7,1.28-.68,4.06.11,15.62,3.35,16.72-2.32,5.88.4,10.94.93,17,1-.77,1.32,4.14,4.03,4.44,4.07,1.9.26,5.96.16,7.82-.31,2.12-.54,4.23-3.8,6.24-3.79.56,0,.37,1.83,1.16,2.03,2.94.75,8.05-.52,11.34,0,.89-3.85-4.04-1.02-5.84-2.16-.3-.19-1.41-3.73-2.16-4.84,3.59,2.33,5.11,3.11,9.53,3.07,25.33-.23,51.12-3.84,76.47-5.07Z"/>
  <path class="cls-4" d="M427,416c1.66-.06,3.34.04,5,0,.56,3.03-1.53,1.92-3.45,2-13.33.53-30.22.29-43.11,1.92-1.91.24-.95,1.92-2.87,2.16-6.68.84-15.45-1-22.13-.16-1.91.24-.95,1.92-2.87,2.16-14.19,1.79-33.15.64-48.07,1.91-4.55.39-9.23,3.33-14.49,2.01-1.62,1.23.02,1.81,1.48,2,2.84.36,10.29.43,13.09.08,1.91-.24.95-1.92,2.87-2.16,7.58-.96,17.59,1.14,25.13.16,1.93-.25.52-1.83,3.83-2.15,2.96-.28,5.44-.84,4.6,3.07-25.36,1.23-51.15,4.83-76.47,5.07-4.42.04-5.93-.74-9.53-3.07-.26-.39-2.55-1.25-2-1.99.95-.36,3.47-.62,4-1.01,55.06-2.5,109.94-10.11,165-12Z"/>
  <path class="cls-12" d="M558,397c-.23.54,0,1.74-.55,2.91-2.23,4.8-3.84,2.94-6.07,4.5-13.54,9.42-26.98,3.45-41.93,5.55-12.01,1.68-22.23.61-33.02,1.97-1.91.24-.95,1.92-2.87,2.16-5.48.69-12.66-.85-18.13-.16-1.91.24-.95,1.92-2.87,2.16-5.88.74-14.25-.23-20.57-.08-1.66.04-3.34-.06-5,0l23.51-2.99,92.9-7.1c6.1-1.41,10.1-4.9,14.6-8.9Z"/>
  <path class="cls-18" d="M300,948c-.05-3.33-1.04-4.6,3.37-4.04,3.07,8.14,4.75,2.03,5.19,2.01.53-.03,10.54,1.47,9.44,4.03-7.7.11-11.26.8-18-2Z"/>
  <path class="cls-10" d="M447,632h-2c.44-3.79-.44-7.32-1-11,8.89-.56,3.83,6.41,3,11Z"/>
  <path class="cls-4" d="M348,429c.27-.02,1.68-1.66,2.99-1,.64,2.11,1.61,5.54.12,7.42-.88,1.11-2.52.22-3.32.64-2.68,1.41-.28,1.66-5.8,1.94-1.99.1-4.01-.05-6,0-1.33.03-2.67,0-4,0h-10c5.69-2.97,19.22-.42,24.33-2.16,2.59-.88,2.78-4.68,1.67-6.84Z"/>
  <path class="cls-18" d="M379,736c.01,4.66-.02,9.34,0,14-3.03.56-1.92-1.53-2-3.45-.09-2.33-.08-4.76,0-7.09.07-1.92-1.02-4.01,2-3.45Z"/>
  <path class="cls-18" d="M309.01,916c-.37-2.21,1.33-8.17,4.48-6.99,3.94,1.49-1.62,7.85-4.48,6.99Z"/>
  <path class="cls-10" d="M453.93,616.05l.99,5.31-3.91,1.64c-.9-3.2-1.31-8.23,2.92-6.95Z"/>
  <path class="cls-10" d="M441,610c3.96-2.17,13.33,7.1,4,6,.31-.91-.22-2.83,0-3.99l-3.93-.11c-.4-.58.09-1.59-.07-1.9Z"/>
  <path class="cls-1" d="M517.99,568v5.49c-5.16,2.29-5.95-6.45,0-5.49Z"/>
  <path class="cls-10" d="M476,441c2.58.67,5.46,2.01,6,5-2.65-.43-4.42-.44-6.92-2.11-.82-1.25.91-2.65.92-2.89Z"/>
  <path class="cls-1" d="M493,464c-1.25-.16-2.62.32-3.56-.99l.56-7.01c.15.24,1.41.3,1.8,1.67s-.58,4.3,1.2,6.33Z"/>
  <path class="cls-1" d="M502.01,507c.34-1-1.17-7.02,1.48-5.99,3.55,1.39,3.46,7.04-1.48,5.99Z"/>
  <path class="cls-18" d="M340,944v4c-1.99,0-4,0-6,0-.45-2.63,3.99-4.1,6-4Z"/>
  <path class="cls-18" d="M329,948v2c-2.65.06-5.34-.06-8,0l.02-1.97c2.23.4,4.56-.88,6.53-.89.81,0,1.33.86,1.45.86Z"/>
  <path class="cls-18" d="M384,642c-.65,2.22.43,5.66-3,7,0-.1-.83-.64-.73-1.32.27-1.85,1.36-6.51,3.73-5.68Z"/>
  <path class="cls-18" d="M380,832c0,2.66,0,5.34,0,8h-2s-.02-7.37-.02-7.37l2.02-.63Z"/>
  <path class="cls-18" d="M379,682c-.05,2,.04,4,0,6-4.36.28-3.56-6.41,0-6Z"/>
  <polygon class="cls-1" points="531 945.99 526.5 946 526.02 944.02 529.48 942.01 531 945.99"/>
  <path class="cls-18" d="M272,448.01c.27,3.07-2.52,3.24-4.99,2.99-.27-3.07,2.52-3.24,4.99-2.99Z"/>
  <path class="cls-18" d="M342,438v2s-5.37.02-5.37.02l-.63-2.02c1.99-.05,4.01.1,6,0Z"/>
  <path class="cls-18" d="M358,942c-1.54.78.97,1.68-6,2v-2s6,0,6,0Z"/>
  <path class="cls-18" d="M295,944c2.21-6.79,8.42.27,0,1-.02-.32-.07-.78,0-1Z"/>
  <polygon class="cls-1" points="529 600.01 527.99 605 526 604.99 527.02 600 529 600.01"/>
  <path class="cls-18" d="M379,905c-2.43-2.06-.21-3.81,0-5,2.71,1.25.04,4.65,0,5Z"/>
  <rect class="cls-1" x="502.01" y="800.01" width="1.99" height="3.99"/>
  <rect class="cls-1" x="510.01" y="540.01" width="1.99" height="3.99"/>
  <path class="cls-18" d="M411,604c.03,4.23-2.01,3.29-3,4-.06-4.13,1.96-3.24,3-4Z"/>
  <rect class="cls-1" x="460.01" y="928.01" width="1.99" height="2.99"/>
  <path class="cls-18" d="M380,670c-.05,1,.04,2,0,3h-2s0-2.49,0-2.49l2.01-.51Z"/>
  <path class="cls-18" d="M432,600c4.78.32,2.36,1.45,3,2h-3s0-2,0-2Z"/>
  <path class="cls-18" d="M379,724c0,1,0,2,0,3h-2s0-2.49,0-2.49l2.01-.51Z"/>
  <rect class="cls-1" x="484.01" y="461.01" width="1.99" height="2.99"/>
  <path class="cls-1" d="M486,450c-.46-.36-2.66.94-1.99-1.49.19-.7.98-.46.99-.51l1,2Z"/>
  <path class="cls-18" d="M294,936l1,1.99h-2c.33-.82.95-1.85,1-1.99Z"/>
  <path class="cls-18" d="M348,944v2s-2,0-2,0c.66-.56-1.73-1.58,2-2Z"/>
  <path class="cls-10" d="M563.99,330l3,51.99c-2.21.37-2.38-.92-2.94-2.55-.94-2.74-1.83-10.74-2.04-13.96-.76-11.2.54-22.77-1.91-33.91l3.89-1.57Z"/>
  <path class="cls-24" d="M559,336h-2s0,8.01,0,8.01h-3v-21.51c0-1.35-2.05-5.09-1-7.51h2.99c.34,4.52.72,9,1,13.55.12,1.92-1.07,4.01,2,3.46.07,1.33-.07,2.67,0,4Z"/>
  <path class="cls-13" d="M526,739c-.15,1.58-1.16,3.28-1.01,5l-3.99-1c.11-.61-.08-1.36,0-2l1.99-.99-1.99.99h-1c0-.34.08-.76,0-1-.23-.69-3.21-1.99-2.73-5.38l4.75-10.62c4.46-3.27,4.14,13.43,3.99,15Z"/>
  <path class="cls-26" d="M521,743c-.67,3.66-.85,7.41-2,11-.38,1.2-1.42,2.58-1.54,4.08-.6,1.08-1.4-.11-1.46-.08.55-5.08,4.13-12.14,4-17h1c-.08.64.11,1.39,0,2Z"/>
  <path class="cls-10" d="M401,263c.38.23.69.86,1,1l-1,2c-.44.2-.69.77-1,1-2.03,1.47-1.62,2.61-2,3-26.16,27.26-15.74,66.38,10.72,89.71.68.6,1.92-.06,1.27,2.28l-79.55,6.05c-21.85-.17-44.01-19.47-45.45-41.56-.58-8.91,5.51-6.21,9.45-12.53,2.07-3.32,2.24-8.11.79-11.7-1.53-3.78-6.59-4.88-7.24-8.25-.06-.3-.01-.69,0-1,2.93.16,2.32-1.48,3-3,6.85-1.59,12.28-7.94,17-12,.37-.32.66-.69,1-1,1.25-1.12,5.63-5.22,6.72-5.78,7.63-3.88,18.7-2.49,26.77-3.23,19.49-1.81,38.96-3.96,58.51-4.99ZM342,310c-6.13-3.25-14.88,1.74-16.53,7.97-4.71,17.84,20.35,25.61,25.53,8.03,2.07-7.05-1.03-15.04-9-16Z"/>
  <path class="cls-9" d="M480,256c31.58,20.27,39.54,59.67,17.41,90.91-13.87,19.59-36.52,27.14-59.95,25.13-7.11-.61-11.88-4.35-19-4.08-26.11.98-53.82,6.15-79.98,7.04-22.35.75-40.48-5.98-52.72-25.26-5.4-8.51-7.37-16.37-8.71-26.31-1.46-1.07-10.82,1.33-13.04,2.11-5.84,2.05-14.54,9.63-19.02,10.48v-4c1.95-.21,4,.24,5.96-.05l2.21-7.78c2.28-.71,4.88.32,7.15-.19,1.51-.34,6.35-3.87,10.99-2l5.69-4.98c.64-.03,1.37-.06,2,0,.92.09,3.48,3.06,3-1,5.13-.17,8.84.37,10.51-5.96,2.01-7.64-1.74-5.62-4.51-10.04-.16-.26.34-1.51-.1-1.86-1.17-.93-10.1,1.35-8.9-1.63l9.01-2.51c.66,3.38,5.71,4.48,7.24,8.25s1.29,8.38-.79,11.7c-3.94,6.31-10.03,3.62-9.45,12.53,1.44,22.09,23.59,41.39,45.45,41.56l79.55-6.05c.65-2.34-.6-1.69-1.27-2.28-26.46-23.33-36.89-62.45-10.72-89.71.38-.39-.03-1.53,2-3,1.08,3.59-1.88,2.81-2,3-1.62,2.5-5.12,7.92-5.8,10.71-.15.59-.35,1.15-.21,1.78l2.51.51c1.79-.85,1.08-3.44,1.86-4.67.93-1.48,7.14-8.72,8.09-9.38,1.03-.73,2.25-.72,2.55-.94-1.15,3.98-4.89,5.81-7.2,9.3-20.76,31.36-5.77,72.98,29.2,84.7,14.95,5.01,30.56,5.8,44-4,.3-.09.68.08,1,0,3.63-.97,3.79-1.23,5-4,4.98-1.47,6.49-4.39,9-8,1.44-.92,3.03-.72,4-4,.09-.31-.1-.7,0-1,2-.86,2.74-2.98,3-5,12.47-11.23,7.5-42.53-.59-55.91-6.05-10.02-12.71-15.78-22.41-22.09.76.22,2.17-.3,3.28.02.7.21,1.26,3.33,4.72,1.98v-4Z"/>
  <path class="cls-17" d="M472,258c9.71,6.31,16.36,12.07,22.41,22.09,8.09,13.39,13.06,44.68.59,55.91-.23.21-1.82-.11-2.53.96-.93,1.38-.17,3.11-.47,4.04-.1.3.09.69,0,1-2.67-.37-3.38,3.1-4,4-.92.59-2.53,1.94-2.71,1.99-1.26.31-3.12-.41-4.13.17-.64.37-1.67,4.72-2.16,5.84-.94.28-2.92-.48-3.84.14l-1.16,3.86c-.32.08-.7-.09-1,0-6.3,1.98-8.32,2.79-15.46,4.04-2.64.46-4.69,4.36-6.04-.05l-1.46.06c-.03.5.07,1.47-.24,1.69-.75.52-7.78.56-9.1.25-.81-.19-.27-1.82-2.12-2.06-2.9-.37-6.53.41-9.57.08-34.97-11.72-49.96-53.33-29.2-84.7,2.31-3.49,6.05-5.33,7.2-9.3,25.52-18.44,35.19-18.5,65-10ZM486,337c8.1-16.83,12.01-29.19,4.18-47.68-20.73-48.94-96.97-31.07-91.17,26.17,1.88,18.61,18.83,38,36.99,40.51-.61,3.7,5.07,1.49,7.32,2.02.85.2,0,2.59,4.17,2.05,3.08-.39,9.66-2.73,11.77-3.76s5.35,1.2,4.74-2.31c.32-.07.68.07,1,0,6.51-1.53,3.39-.87,8.37-3.63,8.43-4.67,8.28-4.33,12.63-13.37Z"/>
  <path class="cls-11" d="M392,240c-.56,3.02,1.53,1.94,3.46,2,3.39.11,9.04-.64,11.86.02.81.19.27,1.81,2.12,2.06,4.48.58,10.23-.58,14.88-.12,3.99,5.45.67,3.17-2.05,4.35-9.42,4.06-10.75,5.22-22.81,5.69-1.92.08-4.01-1.03-3.46,2-.66.04-1.34-.06-2,0l-.51-2.01h-1.48s0,2.01,0,2.01c-25.38,2.17-50.96,4.74-76,8-.33.04-.67-.04-1,0-3.42-6.58-2.07-17.54-11-19,.18-2.67.77-2.19,3.76-2.71,26.76-4.72,57.13-3.94,84.24-2.29Z"/>
  <path class="cls-6" d="M304,250c.53.31.89,2.51,2.49,2.01l.51-2.01h1c.87,2.04.65,2.15,1,4-3.04-.56-1.91,1.53-2,3.45-.1,2.18.06,4.39,0,6.55,1.99-.02,4.01.03,6.01,0l2,4c-2.81.43-5.56,6.4-6,9-.34.31-.63.68-1,1l-3.5-2.01c-.9,2.9-3.37,1.79-5.73,3.31-4.31,2.79-5.84,6.37-7.78,10.7-.84.2-2.06-.16-3,0-.06,1,.04,2,0,3-.01.31-.06.7,0,1l-9.01,2.51c-1.2,2.98,7.73.7,8.9,1.63.44.35-.06,1.6.1,1.86-4.32-.12-8.69.17-13,0v-4.01s-3,0-3,0c.24-.69.72-1.32,1-2,11.03-7.07,23.3-12.98,32-22.99-2.2-.31-3.86.91-5.68,1.81-7.62,3.77-23.04,17.19-29.32,18.76-4.46,1.12-4.26-1.52-5-4.59,7.45-3.94,14.09-9.25,21-14,5.49-3.77,21.41-10.5,18.83-19.28-1.17-3.99-6.79-2.8-9.83-1.72.45-4.77,5.54-4.02,9-2Z"/>
  <path class="cls-27" d="M416,254c-.2.25.6,1.87-.59,2.05-8.54,1.45-18.64.83-26.98,1.87-1.91.24-.95,1.92-2.87,2.16-4.41.56-9.99-.57-14.56-.07-1.62,1.23.02,1.81,1.48,2,8.94,1.14,19.73-1.68,28.52,1-19.55,1.03-39.02,3.18-58.51,4.99-8.06.75-19.14-.65-26.77,3.23-1.1.56-5.48,4.66-6.72,5.78.44-2.6,3.19-8.57,6-9,1.54-.24,3.39.18,5,0v-1.99s-4,0-4,0v-2c25.05-3.26,50.63-5.83,76.01-8,.66-.06,1.34.06,2,0s1.34.04,2,0l20-2Z"/>
  <path class="cls-2" d="M286,273c-.38-.19-.79-.96-1-1,2.11-1.43,6.16-3.52,7-6,.08-.25-.02-.65,0-1,5.49-2.98,3.23-7.5,3-12-.02-.32-.03-.68,0-1,3.04-1.08,8.67-2.27,9.83,1.72,2.57,8.79-13.34,15.51-18.83,19.28Z"/>
  <path class="cls-12" d="M392,240c16.1.98,32.01,3.15,48,5.01l-17.26,5.23c-2.16,1.13-5.16,1.79-6.74,3.76l-20,2c-.56-3.03,1.53-1.92,3.46-2,12.06-.47,13.4-1.63,22.81-5.69,2.72-1.17,6.04,1.1,2.05-4.35-4.65-.46-10.41.7-14.88.12-1.85-.24-1.31-1.87-2.12-2.06-2.81-.66-8.47.09-11.86-.02-1.92-.06-4.01,1.02-3.46-2Z"/>
  <path class="cls-27" d="M315,264c-.64.08-1.35-.01-2,0-2.79-4.62-2.87-4-4-10-.35-1.85-.13-1.96-1-4-.15-.36.35-1.29-.12-1.86l-3.88-.14c-.01-.99-.06-2.01,0-3,8.93,1.46,7.58,12.42,11,19Z"/>
  <path class="cls-6" d="M277,252c1.31.04,3.17.31,4.3-.01,1.02-.29.29-2.38,2.06-1.92,5.84,1.52,6.58,7.81,7.25,7.98l3.38-.04,1.01-5.01c.23,4.5,2.49,9.02-3,12,.07-.99-.01-2.01,0-3-3.96-1.24-4.28,1.02-5.35,1.64-.73.42-1.59.3-1.65.36,9.36-10.95-.33-13.6-10-8,.12-2.86,2.31-1.43,2-4Z"/>
  <path class="cls-27" d="M402,264c.41.18,1.39-.16,2,0v1.99c-.86.2-2.42-.26-3,0l1-2Z"/>
  <path class="cls-13" d="M307,250l-.51,2.01c-1.6.5-1.96-1.7-2.49-2.01h3Z"/>
  <path class="cls-13" d="M220,435c-1.11,5.67-12.66,2.43-16.72,2.32-.78-.02-1.2.68-1.28.68-.99-.06-2.01.08-3,0-.2-1.2.29-2.97,0-4,7.09-.66,14.03.53,21,1Z"/>
  <path class="cls-22" d="M243,426c-.56-3.03,1.53-1.92,3.45-2,7.16-.28,14.39.2,21.54,0,.96,3.9-4.31.91-5.83,2.21-.45.39-.05,1.69-.17,1.78-.53.39-3.05.65-4,1.01-.55.73,1.74,1.6,2,1.99.75,1.11,1.85,4.65,2.16,4.84,1.8,1.14,6.73-1.69,5.84,2.16-3.29-.52-8.4.76-11.34,0-.8-.2-.6-2.03-1.16-2.03-2,0-4.12,3.25-6.24,3.79-1.86.47-5.92.58-7.82.31-.3-.04-5.21-2.75-4.44-4.07,3.4.04,11.84.69,14.34.02,1.08-.29.55-1.93.66-2.02.32-.26,2.06.56,2.01-.5.04-1.08-1.72-.19-2.01-.5-2.09-2.22.83-1.19-4-3-.88-.33-1.34-.69-2-1,.55-2.27-1.31-2.24-3-3Z"/>
  <path class="cls-26" d="M252,433v1c-.11.09.42,1.73-.66,2.02-2.5.67-10.94.02-14.34-.02-6.06-.07-11.12-.6-17-1-6.97-.47-13.91-1.66-21-1-.16-.58-1.51-1.43-2-2l54,1.99-3-3.99c4.83,1.81,1.91.78,4,3Z"/>
  <path class="cls-6" d="M187,430c-2.81-.33-7.6.61-10.31-.02-.64-.15-.51-1.4-1.49-1.92-.67-.35-2.29.26-3.03-.21-.63-.4-.51-2.34-1.16-3.13-1.76-2.11-1.99-.7-3.02-4.72,2.81.29,3.94,2.88,6.29,4.21,4.04,2.29,9.41,2.65,12.71,5.79Z"/>
  <path class="cls-7" d="M230,406c1,.06,2.01-.06,3,0-1.21,4.77,1.49,5.51,2.35,9.11.45,1.91,1.76,3.32-1.36,2.89-2.2-2-1.37-5.9-4-7-.15-1.43-.13-3.56,0-5Z"/>
  <path class="cls-26" d="M237,421c.11.03,1.92.92,2,1,1.11,1.01,1.23,1.5,1,3-2.17-1.64-2.47-1.09-5-4,.63.1,1.47-.15,2,0Z"/>
  <path class="cls-26" d="M234,418v1c-2.59-3.73-3.44-2.61-4-8,2.63,1.1,1.8,5,4,7Z"/>
  <path class="cls-26" d="M243,426c1.69.76,3.55.73,3,3-2.59-1.22-2.11-1.75-4-3h1Z"/>
  <path class="cls-6" d="M275,258c1.03,3.71,3.62,5.61,1,10.99l8-3.99c-1.01,2.51.14,4.04-4.01,5.51v1.48c1.32.11,2.7-.14,4.01,0-5.69,4.27-11.92,7.84-17.96,11.58-1.1.68-1.7,2.21-2.04,2.42-6.38,3.98-10.3-1.64-14.01,2.49-.94,1.05-3.75,14.17-5.8,18.19-2.78,5.45-8.49,12.13-13.84,15.16s-20.48,9.97-17.33-1.84c4.3,2.58,3.52-.42,4.76-.92,10.89-4.36,17.11-7.19,21.72-19.09,1.57-4.07,1.73-8.27,3.02-11.98,3.83-11,27.12-12.51,27.49-26.01.2.22,2.02-.59,2.09.58l-1.08,3.41h3.99s-1-7.99-1-7.99h1Z"/>
  <path class="cls-7" d="M272,296c-.37,1.05.53,2.23-1.98,2.02v1.98c1.64.06,3.32-.06,4.98,0,4.31.17,8.68-.12,13,0,2.77,4.42,6.52,2.4,4.51,10.04-1.66,6.33-5.38,5.79-10.51,5.96-1.1.04-2.52-.3-3,1-.63-.06-1.36-.03-2,0-5,.27-10.57,4.72-15,2,7.19-2.62,28.92-3.12,26.82-13.27-1.54-7.45-12.05-4.42-16.82-2.23-3.72,1.71-10.38,9.56-13.56,4.5-3.01-4.78,11.27-11.9,14.56-14-.28.68-.76,1.31-1,2ZM266.99,302.01h-1.99v1.99h1.99v-1.99Z"/>
  <path class="cls-3" d="M286,273c-6.91,4.75-13.55,10.06-21,14-.11-.44-.57-.82-1-1,.34-.21.94-1.74,2.04-2.42,6.05-3.75,12.27-7.32,17.96-11.58.33.04.68-.06,1,0,.21.04.62.81,1,1Z"/>
  <path class="cls-24" d="M274,258l1,8h-3.99s1.08-3.42,1.08-3.42c-.06-1.17-1.88-.36-2.09-.58-.41-.44-.64-1.76-1-2l-1-2v-2s6,2,6,2Z"/>
  <path class="cls-6" d="M269,260c-.6-.4-.93-.98-1-1v-1l1,2Z"/>
  <path class="cls-22" d="M245,332v4c-.32.06-.67-.04-1,0-4.1.44-8.7-.48-12.85.14l-.15,4.86v1l-2.02.63c.51,5.74-.62,12.29-.01,17.9.32,2.94,4.89,8.49-.97,7.47-.74-9.33-1.08-19.78-4-28-.18-.51-.13-3.6.11-3.89,6.94-1.29,13.85-3.33,20.89-4.11Z"/>
  <path class="cls-22" d="M228,374c4.8.12,2.59,6.44,3,10.01h-2c-.36-3.38-.74-6.59-1-10.01Z"/>
  <path class="cls-27" d="M244,336c-3.23,3.38-9.34,1.93-13,5l.15-4.86c4.15-.62,8.75.3,12.85-.14Z"/>
  <path class="cls-7" d="M237,421l.51-.99h1.48s0,1.99,0,1.99c-.08-.08-1.89-.97-2-1Z"/>
  <path class="cls-6" d="M521,741l1.99-.99-1.99.99Z"/>
  <path class="cls-16" d="M342,310c7.97.96,11.07,8.95,9,16-2.25-.38-5.61,5.74-6.71,5.98-1.76.38-8.94.35-10.77,0-4.89-.92-6.36-10.76-4.76-14.72,2.18-5.41,7.84-7.91,13.24-7.26Z"/>
  <path class="cls-27" d="M342,310c-5.4-.65-11.06,1.85-13.24,7.26-1.6,3.96-.12,13.8,4.76,14.72,1.83.35,9.01.37,10.77,0,1.1-.23,4.45-6.35,6.71-5.98-5.17,17.58-30.23,9.81-25.53-8.03,1.64-6.22,10.39-11.22,16.53-7.97Z"/>
  <path class="cls-27" d="M291,290c1.94-4.33,3.47-7.91,7.78-10.7,2.35-1.52,4.83-.41,5.73-3.31l3.5,2.01c-4.72,4.06-10.15,10.41-17,12-.68,1.52-.07,3.16-3,3,.04-1-.06-2.01,0-3,.95-.15,2.16.2,3,0Z"/>
  <path class="cls-12" d="M473,358c-13.44,9.8-29.05,9.01-44,4,3.04.33,6.67-.45,9.57-.08,1.84.24,1.31,1.87,2.12,2.06,1.33.31,8.36.27,9.1-.25.31-.22.21-1.19.24-1.69l1.46-.06c1.35,4.41,3.4.52,6.04.05,7.14-1.25,9.16-2.06,15.46-4.04Z"/>
  <path class="cls-12" d="M492,342c-.97,3.28-2.56,3.08-4,4-2.51,3.61-4.02,6.53-9,8-1.21,2.77-1.37,3.03-5,4l1.16-3.86c.92-.63,2.89.14,3.84-.14.49-1.12,1.52-5.48,2.16-5.84,1.01-.58,2.87.14,4.13-.17.18-.04,1.79-1.4,2.71-1.99.62-.9,1.33-4.37,4-4Z"/>
  <path class="cls-12" d="M495,336c-.26,2.02-1,4.14-3,5,.3-.94-.45-2.66.47-4.04.71-1.07,2.29-.75,2.53-.96Z"/>
  <path class="cls-6" d="M282,316c.48,4.06-2.08,1.09-3,1,.48-1.3,1.9-.96,3-1Z"/>
  <path class="cls-20" d="M486,337c-5.79,7.53-12.87,12.32-21,17-.32.07-.68-.07-1,0-11.59,2.73-15.72,3.7-28,2-18.16-2.51-35.11-21.9-36.99-40.51-5.8-57.24,70.44-75.11,91.17-26.17,7.83,18.49,3.92,30.85-4.18,47.68ZM438.74,268.24c-47.72,7.44-42.07,87.23,12.64,81.64,52.76-5.39,44.64-90.56-12.64-81.64Z"/>
  <path class="cls-12" d="M486,337c-4.35,9.03-4.2,8.69-12.63,13.37-4.98,2.76-1.86,2.11-8.37,3.63,8.13-4.68,15.21-9.47,21-17Z"/>
  <path class="cls-12" d="M464,354c.61,3.51-2.6,1.27-4.74,2.31s-8.69,3.37-11.77,3.76c-4.17.53-3.32-1.85-4.17-2.05-2.24-.54-7.93,1.68-7.32-2.02,12.28,1.7,16.41.73,28-2Z"/>
  <path class="cls-13" d="M309,254c1.13,6,1.21,5.38,4,10,.65-.01,1.36.08,2,0,.33-.04.67.04,1,0v2s4.01,0,4.01,0v1.99c-1.61.18-3.47-.23-5.01,0l-2-4c-2,.04-4.01-.02-6.01,0,.07-2.17-.09-4.38,0-6.55.09-1.92-1.04-4.01,2-3.45Z"/>
  <path class="cls-12" d="M392,256v-1.99s1.49-.01,1.49-.01l.51,2.01c-.66.06-1.34-.06-2,0Z"/>
  <path class="cls-9" d="M272,296h3s0,4,0,4c-1.66-.06-3.34.05-5,0v-1.98c2.53.22,1.62-.96,2-2.02Z"/>
  <path class="cls-28" d="M285,264c-.32.3-.72.31-1,1l-8,3.99c2.62-5.38.03-7.28-1-10.99-.13-.45-.02-1.4,0-2,9.67-5.6,19.36-2.95,10,8Z"/>
  <rect class="cls-24" x="256.01" y="256.01" width="1.99" height="1.99"/>
  <path class="cls-24" d="M285,264c.06-.06.92.07,1.65-.36,1.08-.62,1.4-2.89,5.35-1.64-.02.99.06,2.01,0,3-.02.35.08.75,0,1l-1.32.03c-.99,2.43-2.14,1.9-4.5,2.13l-1.18,3.84c-.32-.06-.67.04-1,0-1.3-.14-2.68.11-3.99,0v-1.48c4.13-1.47,2.98-3,3.99-5.51.28-.69.68-.7,1-1Z"/>
  <path class="cls-6" d="M292,266c-.84,2.48-4.89,4.57-7,6l1.18-3.84c2.36-.23,3.51.3,4.5-2.13l1.32-.03Z"/>
  <path class="cls-7" d="M252,433c.29.31,2.06-.58,2.01.5.05,1.06-1.69.24-2.01.5v-1Z"/>
  <rect class="cls-9" x="265.01" y="302.01" width="1.99" height="1.99"/>
  <path class="cls-11" d="M438.74,268.24c57.28-8.93,65.39,76.24,12.64,81.64-54.71,5.59-60.36-74.2-12.64-81.64ZM457,284c-3.8-.73-1.78,7.38-1.3,8.76s5.62,4.76,7,4.95c.43.06,7.69-1.76,8.04-1.98,1.16-.73,3.35-6.49,3.24-8.18-.06-.85-2.83-7.17-3.18-7.38-.78-.48-2.34.1-3-.24-.99-.52-.86-1.76-1.5-1.92-3.58-.89-8.56,1.24-9.3,4.98-.06.31.03.67,0,1ZM442.73,298.23c-14.31,2.91-13.77,26.19,1.76,27.8,22.64,2.34,20.18-32.26-1.76-27.8Z"/>
  <path class="cls-23" d="M442.73,298.23c21.94-4.47,24.39,30.14,1.76,27.8-15.52-1.61-16.07-24.88-1.76-27.8Z"/>
  <path class="cls-28" d="M457,283c4.33-2.55,10.74-5.16,14.06.43,6.7,11.28-15.64,19.99-14.06.57.03-.33-.06-.69,0-1Z"/>
  <path class="cls-12" d="M457,283c.75-3.74,5.73-5.87,9.3-4.98.64.16.51,1.4,1.5,1.92.65.34,2.21-.24,3,.24.34.21,3.12,6.53,3.18,7.38.12,1.68-2.08,7.44-3.24,8.18-.35.22-7.6,2.04-8.04,1.98-1.38-.19-6.52-3.54-7-4.95s-2.49-9.49,1.3-8.76c-1.58,19.42,20.76,10.72,14.06-.57-3.32-5.59-9.73-2.98-14.06-.43Z"/>
</svg>